<mxfile host="Electron" modified="2023-11-05T17:24:06.471Z" agent="Mozilla/5.0 (Macintosh; Intel Mac OS X 10_15_7) AppleWebKit/537.36 (KHTML, like Gecko) draw.io/21.3.7 Chrome/112.0.5615.204 Electron/24.5.0 Safari/537.36" etag="-X3D278lL18-3OpkZ31T" version="21.3.7" type="device" pages="3">
  <diagram name="Connector Architecture" id="Abv-gksUDDL9ViVpkuGN">
    <mxGraphModel dx="1420" dy="790" grid="1" gridSize="10" guides="1" tooltips="1" connect="1" arrows="1" fold="1" page="1" pageScale="1" pageWidth="1169" pageHeight="827" math="0" shadow="0">
      <root>
        <mxCell id="0" />
        <mxCell id="1" parent="0" />
        <mxCell id="NfrNPnPoNDceimP2TlM4-21" value="Connector Bundle" style="rounded=0;whiteSpace=wrap;html=1;verticalAlign=top;fillColor=#dae8fc;strokeColor=#6c8ebf;" parent="1" vertex="1">
          <mxGeometry x="430" y="40" width="270" height="360" as="geometry" />
        </mxCell>
        <mxCell id="NfrNPnPoNDceimP2TlM4-8" value="Reconciliation Operations" style="rounded=0;whiteSpace=wrap;html=1;fillColor=#fff2cc;strokeColor=#d6b656;verticalAlign=top;" parent="1" vertex="1">
          <mxGeometry x="450" y="260" width="160" height="130" as="geometry" />
        </mxCell>
        <mxCell id="NfrNPnPoNDceimP2TlM4-4" value="Provisioning Operations" style="rounded=0;whiteSpace=wrap;html=1;fillColor=#fff2cc;strokeColor=#d6b656;verticalAlign=top;" parent="1" vertex="1">
          <mxGeometry x="450" y="70" width="160" height="180" as="geometry" />
        </mxCell>
        <mxCell id="NfrNPnPoNDceimP2TlM4-45" value="Identity Governance Service" style="rounded=0;whiteSpace=wrap;html=1;verticalAlign=top;fillColor=#FFE6FC;strokeColor=#b85450;" parent="1" vertex="1">
          <mxGeometry x="797" y="40" width="273" height="360" as="geometry" />
        </mxCell>
        <mxCell id="NfrNPnPoNDceimP2TlM4-28" value="Oracle Identity Governance" style="rounded=0;whiteSpace=wrap;html=1;verticalAlign=top;fillColor=#FFE6FC;strokeColor=#b85450;" parent="1" vertex="1">
          <mxGeometry x="90" y="40" width="244" height="360" as="geometry" />
        </mxCell>
        <mxCell id="NfrNPnPoNDceimP2TlM4-13" value="RMI" style="rounded=0;whiteSpace=wrap;html=1;fillColor=#d5e8d4;strokeColor=#82b366;direction=west;rotation=270;" parent="1" vertex="1">
          <mxGeometry x="496" y="205" width="318.897" height="49.9999" as="geometry" />
        </mxCell>
        <mxCell id="NfrNPnPoNDceimP2TlM4-19" value="" style="endArrow=classic;html=1;rounded=0;" parent="1" edge="1">
          <mxGeometry width="50" height="50" relative="1" as="geometry">
            <mxPoint x="630" y="310" as="sourcePoint" />
            <mxPoint x="590" y="310" as="targetPoint" />
          </mxGeometry>
        </mxCell>
        <mxCell id="NfrNPnPoNDceimP2TlM4-20" value="" style="endArrow=classic;html=1;rounded=0;" parent="1" edge="1">
          <mxGeometry width="50" height="50" relative="1" as="geometry">
            <mxPoint x="630" y="359.6" as="sourcePoint" />
            <mxPoint x="590" y="359.6" as="targetPoint" />
          </mxGeometry>
        </mxCell>
        <mxCell id="NfrNPnPoNDceimP2TlM4-22" value="ICF Framework" style="rounded=0;whiteSpace=wrap;html=1;fillColor=#d5e8d4;strokeColor=#82b366;direction=west;rotation=270;" parent="1" vertex="1">
          <mxGeometry x="145.5" y="212.5" width="318.9" height="35" as="geometry" />
        </mxCell>
        <mxCell id="NfrNPnPoNDceimP2TlM4-23" value="ICF Integration" style="rounded=0;whiteSpace=wrap;html=1;fillColor=#d5e8d4;strokeColor=#82b366;direction=west;rotation=270;" parent="1" vertex="1">
          <mxGeometry x="92.5" y="212.5" width="318.9" height="35" as="geometry" />
        </mxCell>
        <mxCell id="NfrNPnPoNDceimP2TlM4-24" value="" style="endArrow=classic;html=1;rounded=0;exitX=0.31;exitY=-0.001;exitDx=0;exitDy=0;exitPerimeter=0;" parent="1" source="NfrNPnPoNDceimP2TlM4-22" edge="1">
          <mxGeometry width="50" height="50" relative="1" as="geometry">
            <mxPoint x="400" y="170" as="sourcePoint" />
            <mxPoint x="450" y="170" as="targetPoint" />
          </mxGeometry>
        </mxCell>
        <mxCell id="NfrNPnPoNDceimP2TlM4-37" value="0" style="edgeLabel;html=1;align=center;verticalAlign=middle;resizable=0;points=[];" parent="NfrNPnPoNDceimP2TlM4-24" vertex="1" connectable="0">
          <mxGeometry x="-0.1641" y="-2" relative="1" as="geometry">
            <mxPoint x="-10" y="-2" as="offset" />
          </mxGeometry>
        </mxCell>
        <mxCell id="NfrNPnPoNDceimP2TlM4-39" value="&amp;nbsp; Provisionierung&amp;nbsp;&amp;nbsp;" style="edgeLabel;html=1;align=center;verticalAlign=middle;resizable=0;points=[];" parent="NfrNPnPoNDceimP2TlM4-24" vertex="1" connectable="0">
          <mxGeometry x="-0.2346" y="-1" relative="1" as="geometry">
            <mxPoint x="12" y="-2" as="offset" />
          </mxGeometry>
        </mxCell>
        <mxCell id="NfrNPnPoNDceimP2TlM4-25" value="" style="endArrow=classic;html=1;rounded=0;entryX=0.799;entryY=0.016;entryDx=0;entryDy=0;entryPerimeter=0;" parent="1" target="NfrNPnPoNDceimP2TlM4-22" edge="1">
          <mxGeometry width="50" height="50" relative="1" as="geometry">
            <mxPoint x="450" y="324.8" as="sourcePoint" />
            <mxPoint x="400" y="324.8" as="targetPoint" />
          </mxGeometry>
        </mxCell>
        <mxCell id="NfrNPnPoNDceimP2TlM4-38" value="&amp;nbsp; Abgleich&amp;nbsp;&amp;nbsp;" style="edgeLabel;html=1;align=center;verticalAlign=middle;resizable=0;points=[];" parent="NfrNPnPoNDceimP2TlM4-25" vertex="1" connectable="0">
          <mxGeometry x="0.1884" y="3" relative="1" as="geometry">
            <mxPoint x="13" y="-4" as="offset" />
          </mxGeometry>
        </mxCell>
        <mxCell id="NfrNPnPoNDceimP2TlM4-26" value="" style="endArrow=classic;html=1;rounded=0;" parent="1" edge="1">
          <mxGeometry width="50" height="50" relative="1" as="geometry">
            <mxPoint x="286" y="280" as="sourcePoint" />
            <mxPoint x="269" y="280" as="targetPoint" />
          </mxGeometry>
        </mxCell>
        <mxCell id="NfrNPnPoNDceimP2TlM4-27" value="" style="endArrow=classic;html=1;rounded=0;" parent="1" edge="1">
          <mxGeometry width="50" height="50" relative="1" as="geometry">
            <mxPoint x="270" y="191" as="sourcePoint" />
            <mxPoint x="288" y="191" as="targetPoint" />
          </mxGeometry>
        </mxCell>
        <mxCell id="NfrNPnPoNDceimP2TlM4-29" value="Adapters" style="rounded=0;whiteSpace=wrap;html=1;fillColor=#d5e8d4;strokeColor=#82b366;" parent="1" vertex="1">
          <mxGeometry x="103" y="70" width="120" height="60" as="geometry" />
        </mxCell>
        <mxCell id="NfrNPnPoNDceimP2TlM4-31" value="Reconciliation&lt;br&gt;Engine" style="rounded=0;whiteSpace=wrap;html=1;fillColor=#d5e8d4;strokeColor=#82b366;" parent="1" vertex="1">
          <mxGeometry x="103" y="350" width="120" height="40" as="geometry" />
        </mxCell>
        <mxCell id="NfrNPnPoNDceimP2TlM4-32" value="" style="endArrow=classic;html=1;rounded=0;exitX=0.5;exitY=1;exitDx=0;exitDy=0;entryX=0.282;entryY=0.981;entryDx=0;entryDy=0;entryPerimeter=0;edgeStyle=orthogonalEdgeStyle;" parent="1" source="NfrNPnPoNDceimP2TlM4-29" target="NfrNPnPoNDceimP2TlM4-23" edge="1">
          <mxGeometry width="50" height="50" relative="1" as="geometry">
            <mxPoint x="136" y="180" as="sourcePoint" />
            <mxPoint x="186" y="130" as="targetPoint" />
            <Array as="points">
              <mxPoint x="163" y="161" />
            </Array>
          </mxGeometry>
        </mxCell>
        <mxCell id="NfrNPnPoNDceimP2TlM4-36" value="&lt;span style=&quot;background-color: rgb(255, 230, 252);&quot;&gt;&amp;nbsp; Provisionierung&amp;nbsp;&amp;nbsp;&lt;/span&gt;" style="edgeLabel;html=1;align=center;verticalAlign=middle;resizable=0;points=[];labelBackgroundColor=#F8CECC;" parent="NfrNPnPoNDceimP2TlM4-32" vertex="1" connectable="0">
          <mxGeometry x="-0.1427" y="-1" relative="1" as="geometry">
            <mxPoint x="-12" y="-2" as="offset" />
          </mxGeometry>
        </mxCell>
        <mxCell id="NfrNPnPoNDceimP2TlM4-33" value="" style="endArrow=classic;html=1;rounded=0;exitX=0.5;exitY=0;exitDx=0;exitDy=0;edgeStyle=orthogonalEdgeStyle;entryX=0.436;entryY=0.979;entryDx=0;entryDy=0;entryPerimeter=0;" parent="1" edge="1">
          <mxGeometry width="50" height="50" relative="1" as="geometry">
            <mxPoint x="162" y="280" as="sourcePoint" />
            <mxPoint x="235.18500000000006" y="249.59040000000005" as="targetPoint" />
            <Array as="points">
              <mxPoint x="161" y="250" />
              <mxPoint x="198" y="250" />
            </Array>
          </mxGeometry>
        </mxCell>
        <mxCell id="NfrNPnPoNDceimP2TlM4-35" value="&amp;nbsp; Abgleich&amp;nbsp;&amp;nbsp;" style="edgeLabel;html=1;align=center;verticalAlign=middle;resizable=0;points=[];labelBackgroundColor=#FFE6FC;" parent="NfrNPnPoNDceimP2TlM4-33" vertex="1" connectable="0">
          <mxGeometry x="-0.2418" y="1" relative="1" as="geometry">
            <mxPoint x="-3" as="offset" />
          </mxGeometry>
        </mxCell>
        <mxCell id="NfrNPnPoNDceimP2TlM4-34" value="" style="endArrow=classic;html=1;rounded=0;exitX=0.5;exitY=1;exitDx=0;exitDy=0;" parent="1" source="NfrNPnPoNDceimP2TlM4-30" target="NfrNPnPoNDceimP2TlM4-31" edge="1">
          <mxGeometry width="50" height="50" relative="1" as="geometry">
            <mxPoint x="283" y="300" as="sourcePoint" />
            <mxPoint x="333" y="250" as="targetPoint" />
          </mxGeometry>
        </mxCell>
        <mxCell id="NfrNPnPoNDceimP2TlM4-40" value="" style="endArrow=classic;html=1;rounded=0;exitX=0.31;exitY=-0.001;exitDx=0;exitDy=0;exitPerimeter=0;" parent="1" edge="1">
          <mxGeometry width="50" height="50" relative="1" as="geometry">
            <mxPoint x="680" y="170" as="sourcePoint" />
            <mxPoint x="816" y="171" as="targetPoint" />
          </mxGeometry>
        </mxCell>
        <mxCell id="NfrNPnPoNDceimP2TlM4-41" value="0" style="edgeLabel;html=1;align=center;verticalAlign=middle;resizable=0;points=[];" parent="NfrNPnPoNDceimP2TlM4-40" vertex="1" connectable="0">
          <mxGeometry x="-0.1641" y="-2" relative="1" as="geometry">
            <mxPoint x="-10" y="-2" as="offset" />
          </mxGeometry>
        </mxCell>
        <mxCell id="NfrNPnPoNDceimP2TlM4-42" value="&amp;nbsp; Provisionierung&amp;nbsp;&amp;nbsp;" style="edgeLabel;html=1;align=center;verticalAlign=middle;resizable=0;points=[];" parent="NfrNPnPoNDceimP2TlM4-40" vertex="1" connectable="0">
          <mxGeometry x="-0.2346" y="-1" relative="1" as="geometry">
            <mxPoint x="20" y="-2" as="offset" />
          </mxGeometry>
        </mxCell>
        <mxCell id="NfrNPnPoNDceimP2TlM4-43" value="" style="endArrow=classic;html=1;rounded=0;entryX=0.799;entryY=0.016;entryDx=0;entryDy=0;entryPerimeter=0;" parent="1" edge="1">
          <mxGeometry width="50" height="50" relative="1" as="geometry">
            <mxPoint x="816" y="324" as="sourcePoint" />
            <mxPoint x="680" y="324.2" as="targetPoint" />
          </mxGeometry>
        </mxCell>
        <mxCell id="NfrNPnPoNDceimP2TlM4-44" value="&amp;nbsp; Abgleich&amp;nbsp;&amp;nbsp;" style="edgeLabel;html=1;align=center;verticalAlign=middle;resizable=0;points=[];" parent="NfrNPnPoNDceimP2TlM4-43" vertex="1" connectable="0">
          <mxGeometry x="0.1884" y="3" relative="1" as="geometry">
            <mxPoint x="13" y="-4" as="offset" />
          </mxGeometry>
        </mxCell>
        <mxCell id="NfrNPnPoNDceimP2TlM4-6" value="Ändern" style="rounded=0;whiteSpace=wrap;html=1;verticalAlign=middle;fillColor=#dae8fc;strokeColor=#6c8ebf;" parent="1" vertex="1">
          <mxGeometry x="470" y="150" width="120" height="40" as="geometry" />
        </mxCell>
        <mxCell id="NfrNPnPoNDceimP2TlM4-9" value="Wertelisten&lt;br style=&quot;border-color: var(--border-color);&quot;&gt;Synchronisation" style="rounded=0;whiteSpace=wrap;html=1;verticalAlign=middle;fillColor=#dae8fc;strokeColor=#6c8ebf;" parent="1" vertex="1">
          <mxGeometry x="470" y="290" width="120" height="40" as="geometry" />
        </mxCell>
        <mxCell id="NfrNPnPoNDceimP2TlM4-10" value="Abgleich&lt;br style=&quot;border-color: var(--border-color);&quot;&gt;Benutzerkonten" style="rounded=0;whiteSpace=wrap;html=1;verticalAlign=middle;fillColor=#dae8fc;strokeColor=#6c8ebf;" parent="1" vertex="1">
          <mxGeometry x="470" y="340" width="120" height="40" as="geometry" />
        </mxCell>
        <mxCell id="NfrNPnPoNDceimP2TlM4-48" value="Zielsystem" style="rounded=0;whiteSpace=wrap;html=1;fillColor=#ffe6cc;strokeColor=#d79b00;verticalAlign=middle;" parent="1" vertex="1">
          <mxGeometry x="817" y="140" width="100" height="200" as="geometry" />
        </mxCell>
        <mxCell id="NfrNPnPoNDceimP2TlM4-52" value="" style="shape=image;verticalLabelPosition=bottom;labelBackgroundColor=default;verticalAlign=top;aspect=fixed;imageAspect=0;image=data:image/png,iVBORw0KGgoAAAANSUhEUgAAAQUAAAC+CAYAAAA87BqTAAAAAXNSR0IArs4c6QAAADhlWElmTU0AKgAAAAgAAYdpAAQAAAABAAAAGgAAAAAAAqACAAQAAAABAAABBaADAAQAAAABAAAAvgAAAADUJ7EvAAAZXklEQVR4Ae2dC5AcxXnHex67eyeduIfESzKgsiQsyooJZUPZjiGWeVoGUySOTGSBwBDJUBDbMQZJOKmlDDpJtolTtkNhEiQwJ8ungCMwFA+JIwWFIYGqFHHKGAFKgRAgxJ1Od7rH7s5Mvm/2ZnbufLrdnZ1Hz9y/q+5mdna6v69/PfPffk2PEAggAAIgAAIgAAIgAAIgAAIgAAIgAAIgAAIgAAIgAAIgAAIgAAIgAAIgAAIgAAIgAAIgAAIgAAIgAAIgEDcBxa8DlmUp27ZtO11V1TNN0zyW0sn6TQvxQMAPAbr26DK0+ulvL/31rFy58rCfdBBnPAFfokBicAkls5n+Fo9PDp9AIDYCBRKGe+hvPcShsTKoWxRIENaSyc7GzCI2CIRG4PeU8tIVK1a8H5qFlCes1pM/EoSL6PwN9cTBuSAQMYHTyN62iG2mylxdokA530h/ddcuUkUMmUkCgS90dXVdmARHZfSxZlHYvn07K/DpMmYCPoHARALUCXn5xGP4XBuBmkWBRhg+XVuSOAsE4idAHY64Xn0WQ82iQJCP82kD0UAgDgLHx2E0DTZrFgWqjjWlIcPIw7QhgOvVZ1HXLAo+00c0EACBhBGAKCSswOAuCIRNQA/bgJN+a2ur4L9sNisUBaOaDhds/5hAqVQSw8PD4uDBg4L3EaIlELoozJ8/XyxZskTMmjUr2pzBWuIJ0IiX2Lt3r3jllVfEyMhI4vOTlAyEKgpnnnmmWLhwYVJYwE/JCFDntliwYIGYO3eu6OnpEf39/ZJ5mE53QutTWLx4MQQhnddM5Llqbm4W55xzjtD1UH/DIs+XrAZDEYVMJmM3GWTNNPxKHoGWlhaxaNGi5DmeQI9DEYV58+YJFgYEEAiSAPdPIYRPIBRRmDNnTview8K0I9DW1oYfmwhKPRRR4DYgAgiEQaCpCRMVw+DqTTMUUdA0zWsD+yAQGAFcW4GhPGpCoYjCUa3hCxAAAekJQBSkLyI4CALREoAoRMsb1kBAegIQBemLCA6CQLQEIArR8oY1EJCeAERB+iKCgyAQLQGIQrS8YQ0EpCcAUZC+iOAgCERLAKIQLW9YAwHpCUAUpC8iOAgC0RKAKETLG9ZAQHoCWLVC+iKCg1ERsPJ5tfcc4zRhlk5TLbHYVMSxwlJnKcJsEqo6qFjmgGkp+4Ri/l5o5u9mL928LyrforQDUYiSNmxJR+C9J26amdMyX6FXpF7SJwpLFVN08OtSLVpb2F5eWLHIZ9qzLGHRtrzmMFWwDVX07lr/Bn25SzXFjtbnsz1KPm9Kl0EfDkEUfEBDlOQT6H/ye4tM1bqFbvWv0m3f4jNHCyjeAlMVa/o+V3ird9e6u61C7qezl+UP+0xPimgQBSmKAU5EReCDx9efqOlioyHMr5HN8c/4U4VAVVRqKaj2awj4VQRcW+AtvTaRagpUYTBpa5nCoJWm+ZgnnExn3qFkCzf1PrVuc3tf7k5leb7g+T4xu+hoTExRwdFGCND9q/TuuvV6EoRXKZ0r6W9MEBTBazTw+0iaaQGXplxOZGkpwQwtEqvTcf6ORYK3/DmT0d1z+XxedpC/94R2UpHOvo7Cf/c+ue7PPMcTszsuN4nxGo6CQB0E+nrybX271++k3/mfUbRj7KhUBdB1jYQgJ3IkCHzDl+sFtSfMNQgWDxaSpmxuojicRtWO/6B+h3UsSLWnGv+ZEIX4ywAehEigv2ftQssovEQmLnHMaJoqmnNNVCMI7m1lKqXJ4pDLjUuTayMbenevf9B67MacY1/2LURB9hKCf74J9D71939iGNqzlMACToR/rlkIcvSrHtarCzVVI3FoouZGpbuO7F7Wm2157EBP3m+HJrsfWYAoRIYahqIkMFMbVYRq7KYmwwlsl0UgR7/k3GQIO5ApEp6M3Tfh2KKmyRc0Y3Sn1Z3POsdk3UIUZC0Z+OWbQFY1xCfb3srRcMGxnAgLAlftJ3QI+k6/1oj8Riu7OTEWgYWhb3ZhS63x4zoPohAXedgNiYAlPnHMPjGDawoUHEEIq7lQLRPcnMhSP0O58UIbS6zo23Xr31aLF+f3EIU46cN24ATmz+gVc7IDdro8msAjC3EJgpM5WxhoKNMJNNNhc9/Tt5zufJZtC1GQrUTgj28CzVpRnDrzfTf+JHMI3O+i3uGmhKc/IydM7eeyDlVCFKK+OmAvNAIfa3mXpgaUHz/gG9BzE4Zms56EM3ql1kJzIc/q3b3u6/XEj+pciEJUpGEnVALH6EPihFz5kQPu/c/o8r3g2PbL8+Jlat7cJuNoBEQh1EsViUdF4KMzD7qmdJojEHc/guvMhB2eOekZBZnX215YOeGU2D9CFGIvAjjQKIFmrSCOd2oJlJju6dRrNO0w4vPUaCfQ81ffdvZl2UIUZCkJ+OGbwNymfvfhAu7Q41EHmYP9kBW3JThYYolsIxEQhXLR4H+CCZyYO+R6zzdcEoLmqS1Ypr5CJp8hCjKVBnypm0BOLYoWfdSOx211T3u97rSijMB9C5VgXVDZj38PohB/GcCDBgh0ZI64sZMiCOwwd4QqqtvM+cShZ9e2uxmJeQeiEHMBwHxjBNqyw24C2vjFTtzjsu7wTMexoBoj6lnOh7i3EIW4SwD2GyJAT0O68ZNUU2Cnvf7SjXiqm5GYdyAKMRcAzDdGYAYNR5YDjzm41fHGEo0otjMAweYsVSyKyGxVMxCFqohwgswEsmrJds++wZKlCdSv4Ln9xh7zloG1xysZ3IEPIFAfAW3sWQdZZzBOlZvxGqZIsyoTRGGqUsN3UhNQhZmwBsN4nN7mjqVYzeO/je8TRCE+9rDcIAFTqDQhcOz3dtwrGBpMOKLo5TdJlI3Ri6iGIjJb1QxEoSoinCAzAYN66Dh4bzCZ/fX6Nu5dMooorwzjPSGmfYhCTOBhNhgCBbP8cNGEtzUFk3jIqfCbppxAb5464OzHvYUoxF0CsN8QgSNGZXFk03OTNZRoRJFNT1WBGkGvRWS2qhmIQlVEOEFmAkdKlXesmPSexyQFr4ipqvYHWXyHKMhSEvDDF4G+4gw3nkkvfU1SMA3X31JB1f9TFt8hCrKUBPzwRaCvOJPilUcgDMPwlUYckbjp4PaDWOLl45bmB+PwYzKbEIXJqOBYYggUTE0cLpWH+Pkm41fEJyEYpYqAUaPncZl8hijIVBrwxReB/SOtbjzDKE97dg/IuEMqUPL4qVtql0xuQhRkKg344ovA/pFjhGklpwlRMg1v0+HF1gtu3+Mr4yFFgiiEBBbJRkegYGbEu6NttkEe5SsWi9EZr9cS1xJKldqMpSo/qjeJsM+HKIRNGOlHQuDNI3PITrm2UKT2utuJF4n12o1ws8EZJSF92NPxbObB2mNHcyZEIRrOsBIygSNGTrwzUq4t8KTngoS1BRYqr1+qZa1V8nnpekYhCiFfrEg+OgJ/GDheFM3yJc3Dk95qenReHM0SC4KzIIxdp3mq/fzOh452dpzHIQpx0oftQAkULF28OjjXTbNQKrpVdfdgTDvFoiGMymSlw4owvxGTK1XNQhSqIsIJSSLATQh3iJIa7aOjBRqZiLeGXqJaS5EEyg2K8o228za+6X6WbAeiIFmBwJ3GCfzvwDxxuNhsKwE/Uj0yOhpbjYGbMOObDdadHefe8cvGcxleChCF8Ngi5ZgI8BoLL/Wfwg34vbYLXGMoFKj6XplFGLprZLNYZEGgGgLt20ER3W3ndt4Uuu0GDUAUGgSI6HISoHUWqJJgfN55JJl7/kepo69cjXfu0nB8L9saHd9kEGJ7e+vBlbTAbLjGA8gSRCEAiEhCTgId5296SzeyZ5Mw/Jft4div9wj3M1Q6/YJzntLn5sLIyIi3U5FqCtZP25/Lfk351M89HQvBmQ06JYhC0ESRnlQEZl2YP9BWGDib5jXd5TjGk4dGCqPlTshAHqCy6FkGg/ouRuzmgqcqMKQo1pUd53feKON8BIfHxC1EYSIRfE4dAWXZT0Y7zt1wvaJal1Lm3nYyaNAzCNwJyX/crKhrlILufBYX7jMYGhkVBeqz8K6kRNWDZ2he5Rnt53b+wrGXlG15gbukeAs/QaABAu1f6Hz4QE/+ad0orqOb9kZKahYnxzc3/3HHIL8/QqWXtKj88lfat18ES+fwrz/3FfC6irzCE62pSMc8dQJOqBzeoE2+47zOB5wDSdtCFJJWYvC3IQJji5nc2v94/kdmpnAj3edfpwRPdhLlG9+waKJR/VMbXqBl2u9q69vTpSzfEeEwh+N5cFuIQnAskVKCCLRelO8ld2+z8vnv93+2sNRQxSVUMTiXfvyX1JiNAvVT/FYxrV0kIP8258LOV2uMJ/1pEAXpiwgOhklgrANwN9ngP9HXk28zS8XFqmJ+zFTEscJSjqFGRI6mJR+hNRsGhGK9rRjKq+3GwB7uqwjTt7jShijERR52pSTQvjR/iBx7YexPSh/DdgqjD2ETRvogkDACEIWEFRjcBYGwCUAUwiaM9EEgYQQgCgkrMLgLAmETQEdj2ISRvv0cwGtvvSfeOdArhum5g0bC/n5em6CpahI03yC7ccvDXTTr4NZ1V1/2f1UjhHzCxi2P/JimPx0bsplK8pbFM7H20zSsx26++uJnK19U34MoVGeEMxog8O7BQ2LnMy+L/sGhBlKZGLWmy1ajWCtofuIR2q6emEKUnzu3PnIBTYX8ZpQ2eTYmB5p/uZbE8UlTLa1Yv+ovPqzFBzQfaqGEc3wR+KDvsPjl488HLAj1uqJe9cN/efSUemMFer5lfi/Q9OpP7ALV1Hbd2d1dfpVWlfg1SW6VNPA1CExK4InnX6GqfnnGr0LPE+i6Zj9LMOnJAR/kBVXKi6pYGUM11lPyawI2UVNym+99+M9pxvTZfDI/R5HJZGqK1/BJNF2bX8JtGEWqpNjW/7Qw2Pwd2ru9Wtqh1BSkfhlHNSL4PhACBw8NiHc+6LPT4pshm8sKTdPoQSN+2Cj8P12n37tyDZomJYqrNt7/iPt8QyAZrDERU1XcWgL7FEXebRvEmkU4k8m6nlqKda37YYqdUERheHh4CpP4ajoQeO/DfjebmqY796d7LOwdFiK2Oxay9JQT1xYiDZu2PPxp+pk+j42yPyrdqFEHR4RsH4Q4ZcN9D82u5kMoonDgwIFqdvF9ygmMFiqLDNH9EEvQ+Sas2L769nv//aQoHbGEp5YQgzA6ea0gIBxFrd05frRtKKKwf/9+MTQUZG/z0dzHcVkJ8CPIcQe7tqC6v85ZXdVoHYVoQud9O8+gIcgv2da41kJV+aSEUESBF6x4+eWXk8IAfqaYgK5Tx57zU2lZ12y657GPRJFdxazUEjIxNBsayWMoosAO7du3T7z00kvUpIr/F6MRQIibbALcdNE8tQVTL4VeW9i49eGPE7XLyuSoL4E7PRMUQhMFZrBnzx7xxBNPiLfffntseChBZOBqagjYIxFjuSGNuOb2+x6ZF2bmyMatlL5dP7GHYcM0FkLaoUtYX1+feO655+yhmJaWFpHNZiMbqw6BF5KskcCBwVKNZ4Z/GvctcKcjr7hMIaebJtcWbgjD8ob7Hj3VMo2v2mlzLSVhtQT2O3RRcMBzP8Phw4edj9imnMCgwZN0ctLkkm/OMVEgn5RrN/3rzg23XHPp/qAdVE2DBceugesxjjg0kq9Qmw+NOIa4IBAkgfK8BXcEIGdqauB9C51bfj2fGg0r2W+7L6MyTyLIrISeFkQhdMQwIAuBct+C3dSnpRYtri3MDdI3GnhcSwu/2rVvnr3JwpDEAFFIYqnBZ18Eyn0L7iXfZCrKLb4SmiTSWOfl1fZX3JeQ0FoC++8SmiSfOAQCqSNQ7vgbqy0oYvUdv3jwxCAyqRnWzZSO/aABD4GyACU1QBSSWnLw2xeBct+Ce9k3aaVsw7WFO+7ZeTxpwN+UHaKRjgSOOHhhunS8B7EPAmkmYN+07g+5tXrzlkdPaCS/pAH8SLK9VoGmqYmuJTAHiEIjVwPiJpKAXVuozHJsNoXhu7bATx1ainKdA4InKyU9QBSSXoLw3xeB8bUFsYabAH4SUi3tWzTi0MJxyyMOyb+lkp8DPyWJONOeQLlvwf1Vb9Yy9Y9EbLy7u1VYKr+92g5JnL3o+O7dQhS8NLA/rQiMW2/B8lFbyDSTIFitDI1HHNQEjzh4Cx6i4KWB/WlFgNeN9DxBOUPX1O/WCiD/s+4WmgH1Led8PePWOpxDid1CFBJbdHA8CAL8fIITaA3D635w/0PHOZ+n2uZmNHPnor20WVr6Epz8QhQcEthOSwKKyms5ur/yMwxTr1pb4KXSFWHxMKQd7GaI8yEFW4hCCgoRWWiMwLjJRpa4bsO9j035JqfiUDNPVLJHK+zZi7Q6dZpCunKTppJBXiIjMGEkYqamFI9aW8h3d2dpNTGe0myHJK296PhcbQtRqEYI308LAt7aAq3CfP3RagtNg01XExB75Sbv8ulpggRRSFNpIi++CUysLajCuGliYvl8D7/AYq1z3CskzrE0bCEKaShF5CEQAt6RCKFa1//w7kfmeBPOnTLAC6jM52NprSXYeeN/CCAAArRaEo1EqPRAkx1o6nIpWxlh6O7u1ugZKvctU2nsS3CuAdQUHBLYggARsN8T4ZBQxA3Oa9beGGxaTocX8VcKjTZ4Jj05Z6dmW48olF8fnJqsIyMg8McEeKqyO2+BaguKlfkOjTZwlwMv226HtM1LcPLlbCvTuZwjR9nSaswfMhkEEEg7Ae5ALL/GnmoFlnXDpq2/2Ut55he80FoJVEuoTHZKJYqaawokCP+TSgLIFAhMIDBhJGIWPfR0l3NKmp5xcPI0cVuzKAwMDLxIkT+YmAA+g0AaCUyoDdjzoO2mRWVxljRm285TzaKwZs2aIsX4QWpJIGMg4CHAQ468tJo3pGW9BG+eJtsfn+vJzvAco7bWndTp8qTnEHZBILUEvCMRdpNiGtQSuDDrEoXly5cb7e3tXyZA3MbCaERqbwdkjAl4+xbsWsI06WevefTBuUyWLVs2SvvXd3V1/SNt/4rAfYr+jqMaBL88EAEEbAKmJXiF5JOTjoNf6sLvQU37MKS3nKaJ9nmzjP0oCGzcsvOb9Fv7Y7aVyWQSPYxnWaY9FBkFtzBsFAsFYZCwcbAMa9G6ay99fSo7dTUfpkoI34FAWgnw3ITpFKZXbqdTySKvIOCTAETBJzhEA4G0EoAopLVkkS8Q8EkAouATHKKBQFoJQBTSWrLIFwj4JFD3PAWfdlIfbfXq1ZmhoaGv0JyNi2nOxkcpw/b7BQPOOE8Ye59svEBP8T2wbdu2PQGnj+RAQEAUArgIrrzyys+QINxPSS0kQQggxamTIBsX0Nz89StXrvzJvn37bn7mmWdKU8fAtyBQOwE0H2pnNemZJAjn0Yy3Hvpy4aQnhHeQBf3bJ5100q/z+TzKMTzO0y5lXEwNFPkVV1zB07t/RUnkGkimoahk/+LXX3/dXRWoocQQGQSIAEShsctgHd2UHY0lEUjsm6nGYr/XMJDUkMi0JgBR8F/8tFKX9df+owcas4WaMF8ONEUkNm0JQBR8Fj01HeZTVPt9gj6TCDQaCdRZgSaIxKYtAYiC/6Kv6ZXl/pOvLyYNU0ojUPV5jrNlIwBR8FkiVF2XbThXNn98kkW0uAlAFOIuAdgHAckIQBQkKxC4AwJxE4AoxF0CsA8CkhGAKEhWIHAHBOImAFGIuwRgHwQkIwBRkKxA4A4IxE0AohB3CcA+CEhGAKIgWYHAHRCImwBEIe4SgH0QkIwAREGyAoE7IBA3AYhC3CUA+yAgGQGIgmQFAndAIG4CEIW4SwD2QUAyAol8so5XTh4eHv5LWkPgbHpkeDZt43hR7hzJyvKTtJArLw0XRxihMniNyuJXDzzwwJQvL43DOdisj0DiRGHVqlUfp5WTH6JsnspZpYuxvhyn9+y5lLXlcWWPBIFN50mYbidhuC0uP2C3cQKJEoXLL798Lr3vYDdlGwuKNF72YaTA1xMLQ5G2R8IwgDTDJ5CoPoVMJvN9QgJBCP+6aNTCP5RGh1sbTQTx4yGQGFHgfgRqKsRWPY6neBJrNXfk0AenJ9b7ae54YkShUCjMo7IK41Vs0/wSCCf7RrEg1RqW4eQyealqulm1Ey4xojAyMlJIXhFMX4+NYtHtU0BncLzXgekxr5ea+zwfJ91NjChs3779XcoB/yEkgMDokf6nHTdLhoFRIgdGxFvTJPamIwvKG3937UW91VxI0ugDV3vupr98tUzh+9gJHHj/rdf/+SNLPvNF8uTzpAiiMFoQmq4LNY4ZJbHjiN4BvllMyxRGyREEGr4v3z9VnUmSKAhd1zfRkOQyqo6eVTVnOCEuAgaVzzU7duwYPOPiq9aopvEiOdJm0SVZKvFIJUIcBBRL/HakZfifarGdmOYDZ2br1q0jNCx5Hu3eT39VO0w4DkKkBPaStS92dXX9hq2uX/Wl1wxDpVmn4neRegFj4wgoQtkxnNUvyi9fXlO/XGIrc/RC1XlUa/gc5X62qqJSOu4qiP6DPc15dHT0eaohGBPNd3d3a28OziAxNz9rqUqHYpmJve4m5k3ez2pJKOZ+TRGPf3fVpa/I6yc8AwEQAAEQAAEQAAEQAAEQAAEQAAEQAAEQAAEQAAEQAAEQAAEQAAEQAAEQAAEQAAEQAAEQAIExAv8PpnnROTac3GMAAAAASUVORK5CYII=;" parent="1" vertex="1">
          <mxGeometry x="920" y="190" width="137.37" height="100" as="geometry" />
        </mxCell>
        <mxCell id="NfrNPnPoNDceimP2TlM4-53" value="" style="endArrow=classic;html=1;rounded=0;exitX=0.31;exitY=-0.001;exitDx=0;exitDy=0;exitPerimeter=0;edgeStyle=orthogonalEdgeStyle;" parent="1" target="NfrNPnPoNDceimP2TlM4-52" edge="1">
          <mxGeometry width="50" height="50" relative="1" as="geometry">
            <mxPoint x="917" y="169.5" as="sourcePoint" />
            <mxPoint x="1053" y="170.5" as="targetPoint" />
          </mxGeometry>
        </mxCell>
        <mxCell id="NfrNPnPoNDceimP2TlM4-55" value="&amp;nbsp; Provisionierung&amp;nbsp;&amp;nbsp;" style="edgeLabel;html=1;align=center;verticalAlign=middle;resizable=0;points=[];labelBackgroundColor=#FFE6FC;" parent="NfrNPnPoNDceimP2TlM4-53" vertex="1" connectable="0">
          <mxGeometry x="-0.2346" y="-1" relative="1" as="geometry">
            <mxPoint x="58" y="-2" as="offset" />
          </mxGeometry>
        </mxCell>
        <mxCell id="NfrNPnPoNDceimP2TlM4-56" value="" style="endArrow=classic;html=1;rounded=0;entryX=0.799;entryY=0.016;entryDx=0;entryDy=0;entryPerimeter=0;edgeStyle=orthogonalEdgeStyle;exitX=0.5;exitY=1;exitDx=0;exitDy=0;" parent="1" source="NfrNPnPoNDceimP2TlM4-52" edge="1">
          <mxGeometry width="50" height="50" relative="1" as="geometry">
            <mxPoint x="1053" y="324.58" as="sourcePoint" />
            <mxPoint x="917" y="324.78" as="targetPoint" />
            <Array as="points">
              <mxPoint x="989" y="325" />
            </Array>
          </mxGeometry>
        </mxCell>
        <mxCell id="NfrNPnPoNDceimP2TlM4-57" value="&amp;nbsp; Abgleich&amp;nbsp;&amp;nbsp;" style="edgeLabel;html=1;align=center;verticalAlign=middle;resizable=0;points=[];labelBackgroundColor=#FFE6FC;" parent="NfrNPnPoNDceimP2TlM4-56" vertex="1" connectable="0">
          <mxGeometry x="0.1884" y="3" relative="1" as="geometry">
            <mxPoint x="47" y="-4" as="offset" />
          </mxGeometry>
        </mxCell>
        <mxCell id="NfrNPnPoNDceimP2TlM4-58" value="" style="endArrow=classic;html=1;rounded=0;exitX=1;exitY=0.5;exitDx=0;exitDy=0;" parent="1" edge="1">
          <mxGeometry width="50" height="50" relative="1" as="geometry">
            <mxPoint x="590" y="172" as="sourcePoint" />
            <mxPoint x="631" y="172" as="targetPoint" />
          </mxGeometry>
        </mxCell>
        <mxCell id="NfrNPnPoNDceimP2TlM4-30" value="Scheduled Jobs&amp;nbsp;" style="rounded=0;whiteSpace=wrap;html=1;fillColor=#d5e8d4;strokeColor=#82b366;" parent="1" vertex="1">
          <mxGeometry x="103" y="280" width="120" height="40" as="geometry" />
        </mxCell>
        <mxCell id="132htKkDYYAqvl-WYCqm-1" value="" style="endArrow=classic;html=1;rounded=0;exitX=1;exitY=0.5;exitDx=0;exitDy=0;" parent="1" source="132htKkDYYAqvl-WYCqm-2" edge="1">
          <mxGeometry width="50" height="50" relative="1" as="geometry">
            <mxPoint x="530" y="410" as="sourcePoint" />
            <mxPoint x="631" y="120" as="targetPoint" />
          </mxGeometry>
        </mxCell>
        <mxCell id="132htKkDYYAqvl-WYCqm-2" value="Anlegen" style="rounded=0;whiteSpace=wrap;html=1;verticalAlign=middle;fillColor=#dae8fc;strokeColor=#6c8ebf;" parent="1" vertex="1">
          <mxGeometry x="470" y="100" width="120" height="40" as="geometry" />
        </mxCell>
        <mxCell id="132htKkDYYAqvl-WYCqm-3" value="Löschen" style="rounded=0;whiteSpace=wrap;html=1;verticalAlign=middle;fillColor=#dae8fc;strokeColor=#6c8ebf;" parent="1" vertex="1">
          <mxGeometry x="470" y="200" width="120" height="40" as="geometry" />
        </mxCell>
        <mxCell id="132htKkDYYAqvl-WYCqm-4" value="" style="endArrow=classic;html=1;rounded=0;exitX=1;exitY=0.5;exitDx=0;exitDy=0;" parent="1" edge="1">
          <mxGeometry width="50" height="50" relative="1" as="geometry">
            <mxPoint x="591" y="222" as="sourcePoint" />
            <mxPoint x="632" y="222" as="targetPoint" />
          </mxGeometry>
        </mxCell>
      </root>
    </mxGraphModel>
  </diagram>
  <diagram id="GB5QFf4VQN-6LPDbQy6n" name="Connector Model">
    <mxGraphModel dx="1420" dy="790" grid="1" gridSize="10" guides="1" tooltips="1" connect="1" arrows="1" fold="1" page="1" pageScale="1" pageWidth="1169" pageHeight="827" math="0" shadow="0">
      <root>
        <mxCell id="0" />
        <mxCell id="1" parent="0" />
        <mxCell id="83HNwVi8-6vwmqwuiDNP-1" value="OIG&amp;nbsp;Account" style="rounded=0;whiteSpace=wrap;html=1;strokeColor=#5B9BD5;fontColor=#5B9BD5;fontStyle=1;verticalAlign=middle;align=left;spacingLeft=3;" parent="1" vertex="1">
          <mxGeometry x="250" y="9" width="490" height="30" as="geometry" />
        </mxCell>
        <mxCell id="83HNwVi8-6vwmqwuiDNP-2" value="" style="rounded=0;whiteSpace=wrap;html=1;strokeColor=#5B9BD5;fillColor=#f5f5f5;fontColor=#333333;" parent="1" vertex="1">
          <mxGeometry x="250" y="39" width="490" height="194.8815" as="geometry" />
        </mxCell>
        <mxCell id="83HNwVi8-6vwmqwuiDNP-7" value="" style="shape=table;startSize=0;container=1;collapsible=0;childLayout=tableLayout;fillColor=#5B9BD5;strokeColor=#5B9BD5;fontColor=#FFFFFF;spacingRight=3;spacingLeft=3;" parent="1" vertex="1">
          <mxGeometry x="260" y="46.09" width="470" height="179.92090000000002" as="geometry" />
        </mxCell>
        <mxCell id="83HNwVi8-6vwmqwuiDNP-8" value="" style="shape=tableRow;horizontal=0;startSize=0;swimlaneHead=0;swimlaneBody=0;strokeColor=inherit;top=0;left=0;bottom=0;right=0;collapsible=0;dropTarget=0;fillColor=none;points=[[0,0.5],[1,0.5]];portConstraint=eastwest;fontColor=#FFFFFF;" parent="83HNwVi8-6vwmqwuiDNP-7" vertex="1">
          <mxGeometry width="470" height="30" as="geometry" />
        </mxCell>
        <mxCell id="83HNwVi8-6vwmqwuiDNP-9" value="2" style="shape=partialRectangle;html=1;whiteSpace=wrap;connectable=0;overflow=hidden;fillColor=none;top=0;left=0;bottom=0;right=0;pointerEvents=1;align=right;spacingLeft=3;fontColor=#FFFFFF;" parent="83HNwVi8-6vwmqwuiDNP-8" vertex="1">
          <mxGeometry width="24" height="30" as="geometry">
            <mxRectangle width="24" height="30" as="alternateBounds" />
          </mxGeometry>
        </mxCell>
        <mxCell id="83HNwVi8-6vwmqwuiDNP-10" value="Service" style="shape=partialRectangle;html=1;whiteSpace=wrap;connectable=0;strokeColor=#BD0100;overflow=hidden;fillColor=none;top=0;left=0;bottom=0;right=0;pointerEvents=1;align=left;spacingLeft=3;fontColor=#FFFFFF;" parent="83HNwVi8-6vwmqwuiDNP-8" vertex="1">
          <mxGeometry x="24" width="156" height="30" as="geometry">
            <mxRectangle width="156" height="30" as="alternateBounds" />
          </mxGeometry>
        </mxCell>
        <mxCell id="83HNwVi8-6vwmqwuiDNP-11" value="UD_OIG_USR_SVC" style="shape=partialRectangle;html=1;whiteSpace=wrap;connectable=0;strokeColor=#BD0100;overflow=hidden;fillColor=none;top=0;left=0;bottom=0;right=0;pointerEvents=1;align=left;spacingLeft=3;fontColor=#FFFFFF;" parent="83HNwVi8-6vwmqwuiDNP-8" vertex="1">
          <mxGeometry x="180" width="190" height="30" as="geometry">
            <mxRectangle width="190" height="30" as="alternateBounds" />
          </mxGeometry>
        </mxCell>
        <mxCell id="83HNwVi8-6vwmqwuiDNP-12" value="long" style="shape=partialRectangle;html=1;whiteSpace=wrap;connectable=0;strokeColor=#BD0100;overflow=hidden;fillColor=none;top=0;left=0;bottom=0;right=0;pointerEvents=1;align=left;spacingLeft=3;fontColor=#FFFFFF;" parent="83HNwVi8-6vwmqwuiDNP-8" vertex="1">
          <mxGeometry x="370" width="45" height="30" as="geometry">
            <mxRectangle width="45" height="30" as="alternateBounds" />
          </mxGeometry>
        </mxCell>
        <mxCell id="83HNwVi8-6vwmqwuiDNP-13" style="shape=partialRectangle;html=1;whiteSpace=wrap;connectable=0;strokeColor=#BD0100;overflow=hidden;fillColor=none;top=0;left=0;bottom=0;right=0;pointerEvents=1;align=left;spacingLeft=3;fontColor=#FFFFFF;" parent="83HNwVi8-6vwmqwuiDNP-8" vertex="1">
          <mxGeometry x="415" width="55" height="30" as="geometry">
            <mxRectangle width="55" height="30" as="alternateBounds" />
          </mxGeometry>
        </mxCell>
        <mxCell id="83HNwVi8-6vwmqwuiDNP-14" style="shape=tableRow;horizontal=0;startSize=0;swimlaneHead=0;swimlaneBody=0;strokeColor=inherit;top=0;left=0;bottom=0;right=0;collapsible=0;dropTarget=0;fillColor=none;points=[[0,0.5],[1,0.5]];portConstraint=eastwest;fontColor=#FFFFFF;" parent="83HNwVi8-6vwmqwuiDNP-7" vertex="1">
          <mxGeometry y="30" width="470" height="30" as="geometry" />
        </mxCell>
        <mxCell id="83HNwVi8-6vwmqwuiDNP-15" value="4" style="shape=partialRectangle;html=1;whiteSpace=wrap;connectable=0;strokeColor=inherit;overflow=hidden;fillColor=none;top=0;left=0;bottom=0;right=0;pointerEvents=1;align=right;spacingLeft=3;fontColor=#FFFFFF;" parent="83HNwVi8-6vwmqwuiDNP-14" vertex="1">
          <mxGeometry width="24" height="30" as="geometry">
            <mxRectangle width="24" height="30" as="alternateBounds" />
          </mxGeometry>
        </mxCell>
        <mxCell id="83HNwVi8-6vwmqwuiDNP-16" value="Identifier" style="shape=partialRectangle;html=1;whiteSpace=wrap;connectable=0;strokeColor=inherit;overflow=hidden;fillColor=none;top=0;left=0;bottom=0;right=0;pointerEvents=1;align=left;spacingLeft=3;fontColor=#FFFFFF;" parent="83HNwVi8-6vwmqwuiDNP-14" vertex="1">
          <mxGeometry x="24" width="156" height="30" as="geometry">
            <mxRectangle width="156" height="30" as="alternateBounds" />
          </mxGeometry>
        </mxCell>
        <mxCell id="83HNwVi8-6vwmqwuiDNP-17" value="UD_OIG_USR_SID" style="shape=partialRectangle;html=1;whiteSpace=wrap;connectable=0;strokeColor=inherit;overflow=hidden;fillColor=none;top=0;left=0;bottom=0;right=0;pointerEvents=1;align=left;spacingLeft=3;fontColor=#FFFFFF;" parent="83HNwVi8-6vwmqwuiDNP-14" vertex="1">
          <mxGeometry x="180" width="190" height="30" as="geometry">
            <mxRectangle width="190" height="30" as="alternateBounds" />
          </mxGeometry>
        </mxCell>
        <mxCell id="83HNwVi8-6vwmqwuiDNP-18" value="String" style="shape=partialRectangle;html=1;whiteSpace=wrap;connectable=0;strokeColor=inherit;overflow=hidden;fillColor=none;top=0;left=0;bottom=0;right=0;pointerEvents=1;align=left;spacingLeft=3;fontColor=#FFFFFF;" parent="83HNwVi8-6vwmqwuiDNP-14" vertex="1">
          <mxGeometry x="370" width="45" height="30" as="geometry">
            <mxRectangle width="45" height="30" as="alternateBounds" />
          </mxGeometry>
        </mxCell>
        <mxCell id="83HNwVi8-6vwmqwuiDNP-19" value="16" style="shape=partialRectangle;whiteSpace=wrap;connectable=0;strokeColor=inherit;overflow=hidden;fillColor=none;top=0;left=0;bottom=0;right=0;pointerEvents=1;align=right;spacingLeft=3;fontColor=#FFFFFF;spacingRight=3;" parent="83HNwVi8-6vwmqwuiDNP-14" vertex="1">
          <mxGeometry x="415" width="55" height="30" as="geometry">
            <mxRectangle width="55" height="30" as="alternateBounds" />
          </mxGeometry>
        </mxCell>
        <mxCell id="83HNwVi8-6vwmqwuiDNP-20" style="shape=tableRow;horizontal=0;startSize=0;swimlaneHead=0;swimlaneBody=0;strokeColor=inherit;top=0;left=0;bottom=0;right=0;collapsible=0;dropTarget=0;fillColor=none;points=[[0,0.5],[1,0.5]];portConstraint=eastwest;fontColor=#FFFFFF;" parent="83HNwVi8-6vwmqwuiDNP-7" vertex="1">
          <mxGeometry y="60" width="470" height="30" as="geometry" />
        </mxCell>
        <mxCell id="83HNwVi8-6vwmqwuiDNP-21" value="6" style="shape=partialRectangle;html=1;whiteSpace=wrap;connectable=0;strokeColor=inherit;overflow=hidden;fillColor=none;top=0;left=0;bottom=0;right=0;pointerEvents=1;align=right;spacingLeft=3;fontColor=#FFFFFF;" parent="83HNwVi8-6vwmqwuiDNP-20" vertex="1">
          <mxGeometry width="24" height="30" as="geometry">
            <mxRectangle width="24" height="30" as="alternateBounds" />
          </mxGeometry>
        </mxCell>
        <mxCell id="83HNwVi8-6vwmqwuiDNP-22" value="Login Name" style="shape=partialRectangle;html=1;whiteSpace=wrap;connectable=0;strokeColor=inherit;overflow=hidden;fillColor=none;top=0;left=0;bottom=0;right=0;pointerEvents=1;align=left;spacingLeft=3;fontColor=#FFFFFF;" parent="83HNwVi8-6vwmqwuiDNP-20" vertex="1">
          <mxGeometry x="24" width="156" height="30" as="geometry">
            <mxRectangle width="156" height="30" as="alternateBounds" />
          </mxGeometry>
        </mxCell>
        <mxCell id="83HNwVi8-6vwmqwuiDNP-23" value="UD_OIG_USR_UID" style="shape=partialRectangle;html=1;whiteSpace=wrap;connectable=0;strokeColor=inherit;overflow=hidden;fillColor=none;top=0;left=0;bottom=0;right=0;pointerEvents=1;align=left;spacingLeft=3;fontColor=#FFFFFF;" parent="83HNwVi8-6vwmqwuiDNP-20" vertex="1">
          <mxGeometry x="180" width="190" height="30" as="geometry">
            <mxRectangle width="190" height="30" as="alternateBounds" />
          </mxGeometry>
        </mxCell>
        <mxCell id="83HNwVi8-6vwmqwuiDNP-24" value="String" style="shape=partialRectangle;html=1;whiteSpace=wrap;connectable=0;strokeColor=inherit;overflow=hidden;fillColor=none;top=0;left=0;bottom=0;right=0;pointerEvents=1;align=left;spacingLeft=3;fontColor=#FFFFFF;" parent="83HNwVi8-6vwmqwuiDNP-20" vertex="1">
          <mxGeometry x="370" width="45" height="30" as="geometry">
            <mxRectangle width="45" height="30" as="alternateBounds" />
          </mxGeometry>
        </mxCell>
        <mxCell id="83HNwVi8-6vwmqwuiDNP-25" value="256" style="shape=partialRectangle;html=1;whiteSpace=wrap;connectable=0;strokeColor=inherit;overflow=hidden;fillColor=none;top=0;left=0;bottom=0;right=0;pointerEvents=1;align=right;spacingLeft=3;fontColor=#FFFFFF;spacingRight=3;" parent="83HNwVi8-6vwmqwuiDNP-20" vertex="1">
          <mxGeometry x="415" width="55" height="30" as="geometry">
            <mxRectangle width="55" height="30" as="alternateBounds" />
          </mxGeometry>
        </mxCell>
        <mxCell id="lKnTrRGMAHRhYu0Mp0A0-7" style="shape=tableRow;horizontal=0;startSize=0;swimlaneHead=0;swimlaneBody=0;strokeColor=inherit;top=0;left=0;bottom=0;right=0;collapsible=0;dropTarget=0;fillColor=none;points=[[0,0.5],[1,0.5]];portConstraint=eastwest;fontColor=#FFFFFF;" parent="83HNwVi8-6vwmqwuiDNP-7" vertex="1">
          <mxGeometry y="90" width="470" height="30" as="geometry" />
        </mxCell>
        <mxCell id="lKnTrRGMAHRhYu0Mp0A0-8" value="8" style="shape=partialRectangle;html=1;whiteSpace=wrap;connectable=0;strokeColor=inherit;overflow=hidden;fillColor=none;top=0;left=0;bottom=0;right=0;pointerEvents=1;align=right;spacingLeft=3;fontColor=#FFFFFF;" parent="lKnTrRGMAHRhYu0Mp0A0-7" vertex="1">
          <mxGeometry width="24" height="30" as="geometry">
            <mxRectangle width="24" height="30" as="alternateBounds" />
          </mxGeometry>
        </mxCell>
        <mxCell id="lKnTrRGMAHRhYu0Mp0A0-9" value="Last Name" style="shape=partialRectangle;html=1;whiteSpace=wrap;connectable=0;strokeColor=inherit;overflow=hidden;fillColor=none;top=0;left=0;bottom=0;right=0;pointerEvents=1;align=left;spacingLeft=3;fontColor=#FFFFFF;" parent="lKnTrRGMAHRhYu0Mp0A0-7" vertex="1">
          <mxGeometry x="24" width="156" height="30" as="geometry">
            <mxRectangle width="156" height="30" as="alternateBounds" />
          </mxGeometry>
        </mxCell>
        <mxCell id="lKnTrRGMAHRhYu0Mp0A0-10" value="UD_OIG_USR_SN" style="shape=partialRectangle;html=1;whiteSpace=wrap;connectable=0;strokeColor=inherit;overflow=hidden;fillColor=none;top=0;left=0;bottom=0;right=0;pointerEvents=1;align=left;spacingLeft=3;fontColor=#FFFFFF;" parent="lKnTrRGMAHRhYu0Mp0A0-7" vertex="1">
          <mxGeometry x="180" width="190" height="30" as="geometry">
            <mxRectangle width="190" height="30" as="alternateBounds" />
          </mxGeometry>
        </mxCell>
        <mxCell id="lKnTrRGMAHRhYu0Mp0A0-11" value="String" style="shape=partialRectangle;html=1;whiteSpace=wrap;connectable=0;strokeColor=inherit;overflow=hidden;fillColor=none;top=0;left=0;bottom=0;right=0;pointerEvents=1;align=left;spacingLeft=3;fontColor=#FFFFFF;" parent="lKnTrRGMAHRhYu0Mp0A0-7" vertex="1">
          <mxGeometry x="370" width="45" height="30" as="geometry">
            <mxRectangle width="45" height="30" as="alternateBounds" />
          </mxGeometry>
        </mxCell>
        <mxCell id="lKnTrRGMAHRhYu0Mp0A0-12" value="160" style="shape=partialRectangle;html=1;whiteSpace=wrap;connectable=0;strokeColor=inherit;overflow=hidden;fillColor=none;top=0;left=0;bottom=0;right=0;pointerEvents=1;align=right;spacingLeft=3;fontColor=#FFFFFF;spacingRight=3;" parent="lKnTrRGMAHRhYu0Mp0A0-7" vertex="1">
          <mxGeometry x="415" width="55" height="30" as="geometry">
            <mxRectangle width="55" height="30" as="alternateBounds" />
          </mxGeometry>
        </mxCell>
        <mxCell id="lKnTrRGMAHRhYu0Mp0A0-14" style="shape=tableRow;horizontal=0;startSize=0;swimlaneHead=0;swimlaneBody=0;strokeColor=inherit;top=0;left=0;bottom=0;right=0;collapsible=0;dropTarget=0;fillColor=none;points=[[0,0.5],[1,0.5]];portConstraint=eastwest;fontColor=#FFFFFF;" parent="83HNwVi8-6vwmqwuiDNP-7" vertex="1">
          <mxGeometry y="120" width="470" height="30" as="geometry" />
        </mxCell>
        <mxCell id="lKnTrRGMAHRhYu0Mp0A0-15" value="10" style="shape=partialRectangle;html=1;whiteSpace=wrap;connectable=0;strokeColor=inherit;overflow=hidden;fillColor=none;top=0;left=0;bottom=0;right=0;pointerEvents=1;align=right;spacingLeft=3;fontColor=#FFFFFF;" parent="lKnTrRGMAHRhYu0Mp0A0-14" vertex="1">
          <mxGeometry width="24" height="30" as="geometry">
            <mxRectangle width="24" height="30" as="alternateBounds" />
          </mxGeometry>
        </mxCell>
        <mxCell id="lKnTrRGMAHRhYu0Mp0A0-16" value="First Name" style="shape=partialRectangle;html=1;whiteSpace=wrap;connectable=0;strokeColor=inherit;overflow=hidden;fillColor=none;top=0;left=0;bottom=0;right=0;pointerEvents=1;align=left;spacingLeft=3;fontColor=#FFFFFF;" parent="lKnTrRGMAHRhYu0Mp0A0-14" vertex="1">
          <mxGeometry x="24" width="156" height="30" as="geometry">
            <mxRectangle width="156" height="30" as="alternateBounds" />
          </mxGeometry>
        </mxCell>
        <mxCell id="lKnTrRGMAHRhYu0Mp0A0-17" value="UD_OIG_USR_GN" style="shape=partialRectangle;html=1;whiteSpace=wrap;connectable=0;strokeColor=inherit;overflow=hidden;fillColor=none;top=0;left=0;bottom=0;right=0;pointerEvents=1;align=left;spacingLeft=3;fontColor=#FFFFFF;" parent="lKnTrRGMAHRhYu0Mp0A0-14" vertex="1">
          <mxGeometry x="180" width="190" height="30" as="geometry">
            <mxRectangle width="190" height="30" as="alternateBounds" />
          </mxGeometry>
        </mxCell>
        <mxCell id="lKnTrRGMAHRhYu0Mp0A0-18" value="String" style="shape=partialRectangle;html=1;whiteSpace=wrap;connectable=0;strokeColor=inherit;overflow=hidden;fillColor=none;top=0;left=0;bottom=0;right=0;pointerEvents=1;align=left;spacingLeft=3;fontColor=#FFFFFF;" parent="lKnTrRGMAHRhYu0Mp0A0-14" vertex="1">
          <mxGeometry x="370" width="45" height="30" as="geometry">
            <mxRectangle width="45" height="30" as="alternateBounds" />
          </mxGeometry>
        </mxCell>
        <mxCell id="lKnTrRGMAHRhYu0Mp0A0-19" value="160" style="shape=partialRectangle;html=1;whiteSpace=wrap;connectable=0;strokeColor=inherit;overflow=hidden;fillColor=none;top=0;left=0;bottom=0;right=0;pointerEvents=1;align=right;spacingLeft=3;fontColor=#FFFFFF;spacingRight=3;" parent="lKnTrRGMAHRhYu0Mp0A0-14" vertex="1">
          <mxGeometry x="415" width="55" height="30" as="geometry">
            <mxRectangle width="55" height="30" as="alternateBounds" />
          </mxGeometry>
        </mxCell>
        <mxCell id="lKnTrRGMAHRhYu0Mp0A0-26" style="shape=tableRow;horizontal=0;startSize=0;swimlaneHead=0;swimlaneBody=0;strokeColor=inherit;top=0;left=0;bottom=0;right=0;collapsible=0;dropTarget=0;fillColor=none;points=[[0,0.5],[1,0.5]];portConstraint=eastwest;fontColor=#FFFFFF;" parent="83HNwVi8-6vwmqwuiDNP-7" vertex="1">
          <mxGeometry y="150" width="470" height="30" as="geometry" />
        </mxCell>
        <mxCell id="lKnTrRGMAHRhYu0Mp0A0-27" value="12" style="shape=partialRectangle;html=1;whiteSpace=wrap;connectable=0;strokeColor=inherit;overflow=hidden;fillColor=none;top=0;left=0;bottom=0;right=0;pointerEvents=1;align=right;spacingLeft=3;fontColor=#FFFFFF;" parent="lKnTrRGMAHRhYu0Mp0A0-26" vertex="1">
          <mxGeometry width="24" height="30" as="geometry">
            <mxRectangle width="24" height="30" as="alternateBounds" />
          </mxGeometry>
        </mxCell>
        <mxCell id="lKnTrRGMAHRhYu0Mp0A0-28" value="Display Name" style="shape=partialRectangle;html=1;whiteSpace=wrap;connectable=0;strokeColor=inherit;overflow=hidden;fillColor=none;top=0;left=0;bottom=0;right=0;pointerEvents=1;align=left;spacingLeft=3;fontColor=#FFFFFF;" parent="lKnTrRGMAHRhYu0Mp0A0-26" vertex="1">
          <mxGeometry x="24" width="156" height="30" as="geometry">
            <mxRectangle width="156" height="30" as="alternateBounds" />
          </mxGeometry>
        </mxCell>
        <mxCell id="lKnTrRGMAHRhYu0Mp0A0-29" value="UD_OIG_USR_DN" style="shape=partialRectangle;html=1;whiteSpace=wrap;connectable=0;strokeColor=inherit;overflow=hidden;fillColor=none;top=0;left=0;bottom=0;right=0;pointerEvents=1;align=left;spacingLeft=3;fontColor=#FFFFFF;" parent="lKnTrRGMAHRhYu0Mp0A0-26" vertex="1">
          <mxGeometry x="180" width="190" height="30" as="geometry">
            <mxRectangle width="190" height="30" as="alternateBounds" />
          </mxGeometry>
        </mxCell>
        <mxCell id="lKnTrRGMAHRhYu0Mp0A0-30" value="String" style="shape=partialRectangle;html=1;whiteSpace=wrap;connectable=0;strokeColor=inherit;overflow=hidden;fillColor=none;top=0;left=0;bottom=0;right=0;pointerEvents=1;align=left;spacingLeft=3;fontColor=#FFFFFF;" parent="lKnTrRGMAHRhYu0Mp0A0-26" vertex="1">
          <mxGeometry x="370" width="45" height="30" as="geometry">
            <mxRectangle width="45" height="30" as="alternateBounds" />
          </mxGeometry>
        </mxCell>
        <mxCell id="lKnTrRGMAHRhYu0Mp0A0-31" value="320" style="shape=partialRectangle;html=1;whiteSpace=wrap;connectable=0;strokeColor=inherit;overflow=hidden;fillColor=none;top=0;left=0;bottom=0;right=0;pointerEvents=1;align=right;spacingLeft=3;fontColor=#FFFFFF;spacingRight=3;" parent="lKnTrRGMAHRhYu0Mp0A0-26" vertex="1">
          <mxGeometry x="415" width="55" height="30" as="geometry">
            <mxRectangle width="55" height="30" as="alternateBounds" />
          </mxGeometry>
        </mxCell>
        <mxCell id="83HNwVi8-6vwmqwuiDNP-134" value="OIG System Role" style="rounded=0;whiteSpace=wrap;html=1;strokeColor=#5B9BD5;fontColor=#5B9BD5;fontStyle=1;verticalAlign=middle;align=left;spacingLeft=3;" parent="1" vertex="1">
          <mxGeometry x="320" y="242" width="420" height="30" as="geometry" />
        </mxCell>
        <mxCell id="83HNwVi8-6vwmqwuiDNP-135" value="" style="rounded=0;whiteSpace=wrap;html=1;strokeColor=#5B9BD5;fillColor=#f5f5f5;fontColor=#333333;" parent="1" vertex="1">
          <mxGeometry x="320" y="272" width="420" height="50" as="geometry" />
        </mxCell>
        <mxCell id="83HNwVi8-6vwmqwuiDNP-136" value="" style="shape=table;startSize=0;container=1;collapsible=0;childLayout=tableLayout;fillColor=#5B9BD5;strokeColor=#5B9BD5;fontColor=#FFFFFF;spacingRight=3;spacingLeft=3;" parent="1" vertex="1">
          <mxGeometry x="330" y="282" width="400" height="30" as="geometry" />
        </mxCell>
        <mxCell id="83HNwVi8-6vwmqwuiDNP-137" style="shape=tableRow;horizontal=0;startSize=0;swimlaneHead=0;swimlaneBody=0;strokeColor=inherit;top=0;left=0;bottom=0;right=0;collapsible=0;dropTarget=0;fillColor=none;points=[[0,0.5],[1,0.5]];portConstraint=eastwest;fontColor=#FFFFFF;" parent="83HNwVi8-6vwmqwuiDNP-136" vertex="1">
          <mxGeometry width="400" height="30" as="geometry" />
        </mxCell>
        <mxCell id="83HNwVi8-6vwmqwuiDNP-138" value="2" style="shape=partialRectangle;html=1;whiteSpace=wrap;connectable=0;strokeColor=inherit;overflow=hidden;fillColor=none;top=0;left=0;bottom=0;right=0;pointerEvents=1;align=right;spacingLeft=3;fontColor=#FFFFFF;" parent="83HNwVi8-6vwmqwuiDNP-137" vertex="1">
          <mxGeometry width="21" height="30" as="geometry">
            <mxRectangle width="21" height="30" as="alternateBounds" />
          </mxGeometry>
        </mxCell>
        <mxCell id="83HNwVi8-6vwmqwuiDNP-139" value="Name" style="shape=partialRectangle;html=1;whiteSpace=wrap;connectable=0;strokeColor=inherit;overflow=hidden;fillColor=none;top=0;left=0;bottom=0;right=0;pointerEvents=1;align=left;spacingLeft=3;fontColor=#FFFFFF;" parent="83HNwVi8-6vwmqwuiDNP-137" vertex="1">
          <mxGeometry x="21" width="99" height="30" as="geometry">
            <mxRectangle width="99" height="30" as="alternateBounds" />
          </mxGeometry>
        </mxCell>
        <mxCell id="83HNwVi8-6vwmqwuiDNP-140" value="UD_OIG_UPR_SID" style="shape=partialRectangle;html=1;whiteSpace=wrap;connectable=0;strokeColor=inherit;overflow=hidden;fillColor=none;top=0;left=0;bottom=0;right=0;pointerEvents=1;align=left;spacingLeft=3;fontColor=#FFFFFF;" parent="83HNwVi8-6vwmqwuiDNP-137" vertex="1">
          <mxGeometry x="120" width="181" height="30" as="geometry">
            <mxRectangle width="181" height="30" as="alternateBounds" />
          </mxGeometry>
        </mxCell>
        <mxCell id="83HNwVi8-6vwmqwuiDNP-141" value="String" style="shape=partialRectangle;html=1;whiteSpace=wrap;connectable=0;strokeColor=inherit;overflow=hidden;fillColor=none;top=0;left=0;bottom=0;right=0;pointerEvents=1;align=left;spacingLeft=3;fontColor=#FFFFFF;" parent="83HNwVi8-6vwmqwuiDNP-137" vertex="1">
          <mxGeometry x="301" width="53" height="30" as="geometry">
            <mxRectangle width="53" height="30" as="alternateBounds" />
          </mxGeometry>
        </mxCell>
        <mxCell id="83HNwVi8-6vwmqwuiDNP-142" value="64" style="shape=partialRectangle;whiteSpace=wrap;connectable=0;strokeColor=inherit;overflow=hidden;fillColor=none;top=0;left=0;bottom=0;right=0;pointerEvents=1;align=right;spacingLeft=3;fontColor=#FFFFFF;spacingRight=3;" parent="83HNwVi8-6vwmqwuiDNP-137" vertex="1">
          <mxGeometry x="354" width="46" height="30" as="geometry">
            <mxRectangle width="46" height="30" as="alternateBounds" />
          </mxGeometry>
        </mxCell>
        <mxCell id="83HNwVi8-6vwmqwuiDNP-143" value="OIG Scoped Role" style="rounded=0;whiteSpace=wrap;html=1;strokeColor=#5B9BD5;fontColor=#5B9BD5;fontStyle=1;verticalAlign=middle;align=left;spacingLeft=3;" parent="1" vertex="1">
          <mxGeometry x="320" y="411" width="420" height="30" as="geometry" />
        </mxCell>
        <mxCell id="83HNwVi8-6vwmqwuiDNP-144" value="" style="rounded=0;whiteSpace=wrap;html=1;strokeColor=#5B9BD5;fillColor=#f5f5f5;fontColor=#333333;" parent="1" vertex="1">
          <mxGeometry x="320" y="442" width="420" height="111" as="geometry" />
        </mxCell>
        <mxCell id="83HNwVi8-6vwmqwuiDNP-145" value="" style="shape=table;startSize=0;container=1;collapsible=0;childLayout=tableLayout;fillColor=#5B9BD5;strokeColor=#5B9BD5;fontColor=#FFFFFF;spacingRight=3;spacingLeft=3;" parent="1" vertex="1">
          <mxGeometry x="330" y="452" width="400" height="90" as="geometry" />
        </mxCell>
        <mxCell id="83HNwVi8-6vwmqwuiDNP-146" style="shape=tableRow;horizontal=0;startSize=0;swimlaneHead=0;swimlaneBody=0;strokeColor=inherit;top=0;left=0;bottom=0;right=0;collapsible=0;dropTarget=0;fillColor=none;points=[[0,0.5],[1,0.5]];portConstraint=eastwest;fontColor=#FFFFFF;" parent="83HNwVi8-6vwmqwuiDNP-145" vertex="1">
          <mxGeometry width="400" height="30" as="geometry" />
        </mxCell>
        <mxCell id="83HNwVi8-6vwmqwuiDNP-147" value="2" style="shape=partialRectangle;html=1;whiteSpace=wrap;connectable=0;strokeColor=inherit;overflow=hidden;fillColor=none;top=0;left=0;bottom=0;right=0;pointerEvents=1;align=right;spacingLeft=3;fontColor=#FFFFFF;" parent="83HNwVi8-6vwmqwuiDNP-146" vertex="1">
          <mxGeometry width="21" height="30" as="geometry">
            <mxRectangle width="21" height="30" as="alternateBounds" />
          </mxGeometry>
        </mxCell>
        <mxCell id="83HNwVi8-6vwmqwuiDNP-148" value="Name" style="shape=partialRectangle;html=1;whiteSpace=wrap;connectable=0;strokeColor=inherit;overflow=hidden;fillColor=none;top=0;left=0;bottom=0;right=0;pointerEvents=1;align=left;spacingLeft=3;fontColor=#FFFFFF;" parent="83HNwVi8-6vwmqwuiDNP-146" vertex="1">
          <mxGeometry x="21" width="99" height="30" as="geometry">
            <mxRectangle width="99" height="30" as="alternateBounds" />
          </mxGeometry>
        </mxCell>
        <mxCell id="83HNwVi8-6vwmqwuiDNP-149" value="UD_OIG_UPS_SID" style="shape=partialRectangle;html=1;whiteSpace=wrap;connectable=0;strokeColor=inherit;overflow=hidden;fillColor=none;top=0;left=0;bottom=0;right=0;pointerEvents=1;align=left;spacingLeft=3;fontColor=#FFFFFF;" parent="83HNwVi8-6vwmqwuiDNP-146" vertex="1">
          <mxGeometry x="120" width="181" height="30" as="geometry">
            <mxRectangle width="181" height="30" as="alternateBounds" />
          </mxGeometry>
        </mxCell>
        <mxCell id="83HNwVi8-6vwmqwuiDNP-150" value="String&#x9;" style="shape=partialRectangle;html=1;whiteSpace=wrap;connectable=0;strokeColor=inherit;overflow=hidden;fillColor=none;top=0;left=0;bottom=0;right=0;pointerEvents=1;align=left;spacingLeft=3;fontColor=#FFFFFF;" parent="83HNwVi8-6vwmqwuiDNP-146" vertex="1">
          <mxGeometry x="301" width="53" height="30" as="geometry">
            <mxRectangle width="53" height="30" as="alternateBounds" />
          </mxGeometry>
        </mxCell>
        <mxCell id="83HNwVi8-6vwmqwuiDNP-151" value="64" style="shape=partialRectangle;whiteSpace=wrap;connectable=0;strokeColor=inherit;overflow=hidden;fillColor=none;top=0;left=0;bottom=0;right=0;pointerEvents=1;align=right;spacingLeft=3;fontColor=#FFFFFF;spacingRight=3;" parent="83HNwVi8-6vwmqwuiDNP-146" vertex="1">
          <mxGeometry x="354" width="46" height="30" as="geometry">
            <mxRectangle width="46" height="30" as="alternateBounds" />
          </mxGeometry>
        </mxCell>
        <mxCell id="174S2ISfr4z_TtCMh8-6-1" style="shape=tableRow;horizontal=0;startSize=0;swimlaneHead=0;swimlaneBody=0;strokeColor=inherit;top=0;left=0;bottom=0;right=0;collapsible=0;dropTarget=0;fillColor=none;points=[[0,0.5],[1,0.5]];portConstraint=eastwest;fontColor=#FFFFFF;" parent="83HNwVi8-6vwmqwuiDNP-145" vertex="1">
          <mxGeometry y="30" width="400" height="30" as="geometry" />
        </mxCell>
        <mxCell id="174S2ISfr4z_TtCMh8-6-2" value="4" style="shape=partialRectangle;html=1;whiteSpace=wrap;connectable=0;strokeColor=inherit;overflow=hidden;fillColor=none;top=0;left=0;bottom=0;right=0;pointerEvents=1;align=right;spacingLeft=3;fontColor=#FFFFFF;" parent="174S2ISfr4z_TtCMh8-6-1" vertex="1">
          <mxGeometry width="21" height="30" as="geometry">
            <mxRectangle width="21" height="30" as="alternateBounds" />
          </mxGeometry>
        </mxCell>
        <mxCell id="174S2ISfr4z_TtCMh8-6-3" value="Scope" style="shape=partialRectangle;html=1;whiteSpace=wrap;connectable=0;strokeColor=inherit;overflow=hidden;fillColor=none;top=0;left=0;bottom=0;right=0;pointerEvents=1;align=left;spacingLeft=3;fontColor=#FFFFFF;" parent="174S2ISfr4z_TtCMh8-6-1" vertex="1">
          <mxGeometry x="21" width="99" height="30" as="geometry">
            <mxRectangle width="99" height="30" as="alternateBounds" />
          </mxGeometry>
        </mxCell>
        <mxCell id="174S2ISfr4z_TtCMh8-6-4" value="UD_OIG_UPS_SCP" style="shape=partialRectangle;html=1;whiteSpace=wrap;connectable=0;strokeColor=inherit;overflow=hidden;fillColor=none;top=0;left=0;bottom=0;right=0;pointerEvents=1;align=left;spacingLeft=3;fontColor=#FFFFFF;" parent="174S2ISfr4z_TtCMh8-6-1" vertex="1">
          <mxGeometry x="120" width="181" height="30" as="geometry">
            <mxRectangle width="181" height="30" as="alternateBounds" />
          </mxGeometry>
        </mxCell>
        <mxCell id="174S2ISfr4z_TtCMh8-6-5" value="String&#x9;" style="shape=partialRectangle;html=1;whiteSpace=wrap;connectable=0;strokeColor=inherit;overflow=hidden;fillColor=none;top=0;left=0;bottom=0;right=0;pointerEvents=1;align=left;spacingLeft=3;fontColor=#FFFFFF;" parent="174S2ISfr4z_TtCMh8-6-1" vertex="1">
          <mxGeometry x="301" width="53" height="30" as="geometry">
            <mxRectangle width="53" height="30" as="alternateBounds" />
          </mxGeometry>
        </mxCell>
        <mxCell id="174S2ISfr4z_TtCMh8-6-6" value="64" style="shape=partialRectangle;whiteSpace=wrap;connectable=0;strokeColor=inherit;overflow=hidden;fillColor=none;top=0;left=0;bottom=0;right=0;pointerEvents=1;align=right;spacingLeft=3;fontColor=#FFFFFF;spacingRight=3;" parent="174S2ISfr4z_TtCMh8-6-1" vertex="1">
          <mxGeometry x="354" width="46" height="30" as="geometry">
            <mxRectangle width="46" height="30" as="alternateBounds" />
          </mxGeometry>
        </mxCell>
        <mxCell id="lKnTrRGMAHRhYu0Mp0A0-1" style="shape=tableRow;horizontal=0;startSize=0;swimlaneHead=0;swimlaneBody=0;strokeColor=inherit;top=0;left=0;bottom=0;right=0;collapsible=0;dropTarget=0;fillColor=none;points=[[0,0.5],[1,0.5]];portConstraint=eastwest;fontColor=#FFFFFF;" parent="83HNwVi8-6vwmqwuiDNP-145" vertex="1">
          <mxGeometry y="60" width="400" height="30" as="geometry" />
        </mxCell>
        <mxCell id="lKnTrRGMAHRhYu0Mp0A0-2" value="6" style="shape=partialRectangle;html=1;whiteSpace=wrap;connectable=0;strokeColor=inherit;overflow=hidden;fillColor=none;top=0;left=0;bottom=0;right=0;pointerEvents=1;align=right;spacingLeft=3;fontColor=#FFFFFF;" parent="lKnTrRGMAHRhYu0Mp0A0-1" vertex="1">
          <mxGeometry width="21" height="30" as="geometry">
            <mxRectangle width="21" height="30" as="alternateBounds" />
          </mxGeometry>
        </mxCell>
        <mxCell id="lKnTrRGMAHRhYu0Mp0A0-3" value="Hierarchy" style="shape=partialRectangle;html=1;whiteSpace=wrap;connectable=0;strokeColor=inherit;overflow=hidden;fillColor=none;top=0;left=0;bottom=0;right=0;pointerEvents=1;align=left;spacingLeft=3;fontColor=#FFFFFF;" parent="lKnTrRGMAHRhYu0Mp0A0-1" vertex="1">
          <mxGeometry x="21" width="99" height="30" as="geometry">
            <mxRectangle width="99" height="30" as="alternateBounds" />
          </mxGeometry>
        </mxCell>
        <mxCell id="lKnTrRGMAHRhYu0Mp0A0-4" value="UD_OIG_UPS_HRC" style="shape=partialRectangle;html=1;whiteSpace=wrap;connectable=0;strokeColor=inherit;overflow=hidden;fillColor=none;top=0;left=0;bottom=0;right=0;pointerEvents=1;align=left;spacingLeft=3;fontColor=#FFFFFF;" parent="lKnTrRGMAHRhYu0Mp0A0-1" vertex="1">
          <mxGeometry x="120" width="181" height="30" as="geometry">
            <mxRectangle width="181" height="30" as="alternateBounds" />
          </mxGeometry>
        </mxCell>
        <mxCell id="lKnTrRGMAHRhYu0Mp0A0-5" value="Boolean" style="shape=partialRectangle;html=1;whiteSpace=wrap;connectable=0;strokeColor=inherit;overflow=hidden;fillColor=none;top=0;left=0;bottom=0;right=0;pointerEvents=1;align=left;spacingLeft=3;fontColor=#FFFFFF;" parent="lKnTrRGMAHRhYu0Mp0A0-1" vertex="1">
          <mxGeometry x="301" width="53" height="30" as="geometry">
            <mxRectangle width="53" height="30" as="alternateBounds" />
          </mxGeometry>
        </mxCell>
        <mxCell id="lKnTrRGMAHRhYu0Mp0A0-6" value="64" style="shape=partialRectangle;whiteSpace=wrap;connectable=0;strokeColor=inherit;overflow=hidden;fillColor=none;top=0;left=0;bottom=0;right=0;pointerEvents=1;align=right;spacingLeft=3;fontColor=#FFFFFF;spacingRight=3;" parent="lKnTrRGMAHRhYu0Mp0A0-1" vertex="1">
          <mxGeometry x="354" width="46" height="30" as="geometry">
            <mxRectangle width="46" height="30" as="alternateBounds" />
          </mxGeometry>
        </mxCell>
        <mxCell id="83HNwVi8-6vwmqwuiDNP-152" value="" style="endArrow=diamondThin;html=1;rounded=0;exitX=0;exitY=0.5;exitDx=0;exitDy=0;strokeColor=#5B9BD5;startArrow=none;startFill=0;endFill=0;edgeStyle=orthogonalEdgeStyle;entryX=0;entryY=1;entryDx=0;entryDy=0;" parent="1" source="83HNwVi8-6vwmqwuiDNP-144" edge="1">
          <mxGeometry width="50" height="50" relative="1" as="geometry">
            <mxPoint x="310" y="614" as="sourcePoint" />
            <mxPoint x="250" y="233" as="targetPoint" />
          </mxGeometry>
        </mxCell>
        <mxCell id="83HNwVi8-6vwmqwuiDNP-153" value="" style="endArrow=diamondThin;html=1;rounded=0;exitX=0;exitY=0.5;exitDx=0;exitDy=0;strokeColor=#5B9BD5;startArrow=none;startFill=0;endFill=0;edgeStyle=orthogonalEdgeStyle;entryX=0.078;entryY=0.996;entryDx=0;entryDy=0;entryPerimeter=0;" parent="1" source="83HNwVi8-6vwmqwuiDNP-135" edge="1">
          <mxGeometry width="50" height="50" relative="1" as="geometry">
            <mxPoint x="300" y="495" as="sourcePoint" />
            <mxPoint x="288.22" y="232.55600000000004" as="targetPoint" />
          </mxGeometry>
        </mxCell>
        <mxCell id="83HNwVi8-6vwmqwuiDNP-154" value="Identity" style="rounded=0;whiteSpace=wrap;html=1;strokeColor=#7030A0;fontColor=#7030A0;fontStyle=1;verticalAlign=middle;align=left;spacingLeft=3;" parent="1" vertex="1">
          <mxGeometry x="7" y="9" width="200" height="30" as="geometry" />
        </mxCell>
        <mxCell id="83HNwVi8-6vwmqwuiDNP-155" value="" style="rounded=0;whiteSpace=wrap;html=1;strokeColor=#7030A0;fillColor=#f5f5f5;fontColor=#333333;" parent="1" vertex="1">
          <mxGeometry x="7" y="39" width="200" height="194.8815" as="geometry" />
        </mxCell>
        <mxCell id="83HNwVi8-6vwmqwuiDNP-156" value="User Login" style="rounded=0;whiteSpace=wrap;html=1;strokeColor=#FFFFFF;fillColor=#7030A0;fontColor=#FFFFFF;align=left;spacingLeft=3;" parent="1" vertex="1">
          <mxGeometry x="14.873999999999995" y="106.08999999999997" width="180" height="30" as="geometry" />
        </mxCell>
        <mxCell id="83HNwVi8-6vwmqwuiDNP-186" value="" style="endArrow=oval;html=1;rounded=0;startArrow=oval;startFill=1;endFill=1;strokeColor=#7030A0;fontColor=#7030A0;labelBorderColor=#7030A0;spacingBottom=3;labelBackgroundColor=none;fontSize=17;" parent="1" source="83HNwVi8-6vwmqwuiDNP-156" target="83HNwVi8-6vwmqwuiDNP-20" edge="1">
          <mxGeometry width="50" height="50" relative="1" as="geometry">
            <mxPoint x="205" y="101" as="sourcePoint" />
            <mxPoint x="260" y="121" as="targetPoint" />
          </mxGeometry>
        </mxCell>
        <mxCell id="83HNwVi8-6vwmqwuiDNP-187" value="&amp;nbsp;T&amp;nbsp;" style="edgeLabel;html=1;align=center;verticalAlign=middle;resizable=0;points=[];fontSize=15;fontColor=#FFFFFF;labelBorderColor=#7030A0;labelBackgroundColor=#7030A0;spacingBottom=5;spacingLeft=3;spacingRight=3;" parent="83HNwVi8-6vwmqwuiDNP-186" vertex="1" connectable="0">
          <mxGeometry x="0.0012" y="-2" relative="1" as="geometry">
            <mxPoint as="offset" />
          </mxGeometry>
        </mxCell>
        <mxCell id="174S2ISfr4z_TtCMh8-6-8" value="IT Resource" style="rounded=0;whiteSpace=wrap;html=1;strokeColor=#5B9BD5;fontColor=#5B9BD5;fontStyle=1;verticalAlign=middle;align=left;spacingLeft=3;" parent="1" vertex="1">
          <mxGeometry x="772" y="9" width="170" height="30" as="geometry" />
        </mxCell>
        <mxCell id="174S2ISfr4z_TtCMh8-6-9" value="" style="rounded=0;whiteSpace=wrap;html=1;strokeColor=#5B9BD5;fillColor=#f5f5f5;fontColor=#333333;" parent="1" vertex="1">
          <mxGeometry x="772" y="39" width="170" height="41" as="geometry" />
        </mxCell>
        <mxCell id="174S2ISfr4z_TtCMh8-6-10" value="Lookup" style="rounded=0;whiteSpace=wrap;html=1;strokeColor=#5B9BD5;fontColor=#5B9BD5;fontStyle=1;verticalAlign=middle;align=left;spacingLeft=3;" parent="1" vertex="1">
          <mxGeometry x="772" y="242" width="170" height="30" as="geometry" />
        </mxCell>
        <mxCell id="174S2ISfr4z_TtCMh8-6-11" value="" style="rounded=0;whiteSpace=wrap;html=1;strokeColor=#5B9BD5;fillColor=#f5f5f5;fontColor=#333333;" parent="1" vertex="1">
          <mxGeometry x="772" y="272" width="170" height="269" as="geometry" />
        </mxCell>
        <mxCell id="174S2ISfr4z_TtCMh8-6-12" value="1..*" style="text;strokeColor=none;align=center;fillColor=none;html=1;verticalAlign=middle;whiteSpace=wrap;rounded=0;fontColor=#5B9BD5;" parent="1" vertex="1">
          <mxGeometry x="291" y="277" width="28.3464" height="20.078699999999998" as="geometry" />
        </mxCell>
        <mxCell id="174S2ISfr4z_TtCMh8-6-14" value="1" style="text;strokeColor=none;align=center;fillColor=none;html=1;verticalAlign=middle;whiteSpace=wrap;rounded=0;fontColor=#5B9BD5;" parent="1" vertex="1">
          <mxGeometry x="248.5" y="241.00065" width="18.5039" height="20.078699999999998" as="geometry" />
        </mxCell>
        <mxCell id="174S2ISfr4z_TtCMh8-6-15" value="1" style="text;strokeColor=none;align=center;fillColor=none;html=1;verticalAlign=middle;whiteSpace=wrap;rounded=0;fontColor=#5B9BD5;" parent="1" vertex="1">
          <mxGeometry x="289" y="241.00065" width="18.5039" height="20.078699999999998" as="geometry" />
        </mxCell>
        <mxCell id="174S2ISfr4z_TtCMh8-6-16" value="OIG.System Role" style="rounded=0;whiteSpace=wrap;html=1;fillColor=#ffe6cc;strokeColor=#d79b00;" parent="1" vertex="1">
          <mxGeometry x="816" y="283.41735" width="120" height="27.165300000000002" as="geometry" />
        </mxCell>
        <mxCell id="174S2ISfr4z_TtCMh8-6-17" value="OIG.Scoped Role" style="rounded=0;whiteSpace=wrap;html=1;fillColor=#ffe6cc;strokeColor=#d79b00;" parent="1" vertex="1">
          <mxGeometry x="816" y="453.41734999999994" width="120" height="27.165300000000002" as="geometry" />
        </mxCell>
        <mxCell id="174S2ISfr4z_TtCMh8-6-18" value="OIG.Scope" style="rounded=0;whiteSpace=wrap;html=1;fillColor=#ffe6cc;strokeColor=#d79b00;" parent="1" vertex="1">
          <mxGeometry x="816" y="483.41734999999994" width="120" height="27.165300000000002" as="geometry" />
        </mxCell>
        <mxCell id="174S2ISfr4z_TtCMh8-6-19" value="OIG Local Endpoint" style="rounded=0;whiteSpace=wrap;html=1;fillColor=#ffe6cc;strokeColor=#d79b00;" parent="1" vertex="1">
          <mxGeometry x="816" y="47.50735" width="120" height="27.165300000000002" as="geometry" />
        </mxCell>
        <mxCell id="174S2ISfr4z_TtCMh8-6-20" value="" style="endArrow=open;html=1;rounded=0;endFill=0;exitX=1;exitY=0.5;exitDx=0;exitDy=0;entryX=0;entryY=0.5;entryDx=0;entryDy=0;" parent="1" source="83HNwVi8-6vwmqwuiDNP-137" target="174S2ISfr4z_TtCMh8-6-16" edge="1">
          <mxGeometry width="50" height="50" relative="1" as="geometry">
            <mxPoint x="830" y="225" as="sourcePoint" />
            <mxPoint x="880" y="175" as="targetPoint" />
          </mxGeometry>
        </mxCell>
        <mxCell id="174S2ISfr4z_TtCMh8-6-21" value="" style="endArrow=open;html=1;rounded=0;endFill=0;exitX=1;exitY=0.5;exitDx=0;exitDy=0;entryX=0;entryY=0.5;entryDx=0;entryDy=0;" parent="1" source="83HNwVi8-6vwmqwuiDNP-146" target="174S2ISfr4z_TtCMh8-6-17" edge="1">
          <mxGeometry width="50" height="50" relative="1" as="geometry">
            <mxPoint x="730" y="472.03999999999996" as="sourcePoint" />
            <mxPoint x="930" y="474.03999999999996" as="targetPoint" />
          </mxGeometry>
        </mxCell>
        <mxCell id="174S2ISfr4z_TtCMh8-6-22" value="" style="endArrow=open;html=1;rounded=0;endFill=0;exitX=1;exitY=0.5;exitDx=0;exitDy=0;entryX=0;entryY=0.5;entryDx=0;entryDy=0;" parent="1" source="174S2ISfr4z_TtCMh8-6-1" target="174S2ISfr4z_TtCMh8-6-18" edge="1">
          <mxGeometry width="50" height="50" relative="1" as="geometry">
            <mxPoint x="740" y="477" as="sourcePoint" />
            <mxPoint x="940" y="477" as="targetPoint" />
          </mxGeometry>
        </mxCell>
        <mxCell id="174S2ISfr4z_TtCMh8-6-23" value="" style="endArrow=open;html=1;rounded=0;endFill=0;exitX=1;exitY=0.5;exitDx=0;exitDy=0;entryX=0;entryY=0.5;entryDx=0;entryDy=0;" parent="1" source="83HNwVi8-6vwmqwuiDNP-8" target="174S2ISfr4z_TtCMh8-6-19" edge="1">
          <mxGeometry width="50" height="50" relative="1" as="geometry">
            <mxPoint x="730" y="64.20999999999998" as="sourcePoint" />
            <mxPoint x="930" y="64.20999999999998" as="targetPoint" />
          </mxGeometry>
        </mxCell>
        <mxCell id="174S2ISfr4z_TtCMh8-6-24" value="1" style="text;strokeColor=none;align=center;fillColor=none;html=1;verticalAlign=middle;whiteSpace=wrap;rounded=0;fontColor=#5B9BD5;" parent="1" vertex="1">
          <mxGeometry x="740" y="41.00065000000001" width="18.5039" height="20.078699999999998" as="geometry" />
        </mxCell>
        <mxCell id="174S2ISfr4z_TtCMh8-6-25" value="1" style="text;strokeColor=none;align=center;fillColor=none;html=1;verticalAlign=middle;whiteSpace=wrap;rounded=0;fontColor=#5B9BD5;" parent="1" vertex="1">
          <mxGeometry x="740" y="277.00065" width="18.5039" height="20.078699999999998" as="geometry" />
        </mxCell>
        <mxCell id="174S2ISfr4z_TtCMh8-6-26" value="1" style="text;strokeColor=none;align=center;fillColor=none;html=1;verticalAlign=middle;whiteSpace=wrap;rounded=0;fontColor=#5B9BD5;" parent="1" vertex="1">
          <mxGeometry x="740" y="446.92065" width="18.5039" height="20.078699999999998" as="geometry" />
        </mxCell>
        <mxCell id="174S2ISfr4z_TtCMh8-6-27" value="1" style="text;strokeColor=none;align=center;fillColor=none;html=1;verticalAlign=middle;whiteSpace=wrap;rounded=0;fontColor=#5B9BD5;" parent="1" vertex="1">
          <mxGeometry x="740" y="476.92065" width="18.5039" height="20.078699999999998" as="geometry" />
        </mxCell>
        <mxCell id="174S2ISfr4z_TtCMh8-6-28" value="1..*" style="text;strokeColor=none;align=center;fillColor=none;html=1;verticalAlign=middle;whiteSpace=wrap;rounded=0;fontColor=#5B9BD5;" parent="1" vertex="1">
          <mxGeometry x="776" y="476.92065" width="40" height="20.078699999999998" as="geometry" />
        </mxCell>
        <mxCell id="174S2ISfr4z_TtCMh8-6-29" value="1..*" style="text;strokeColor=none;align=center;fillColor=none;html=1;verticalAlign=middle;whiteSpace=wrap;rounded=0;fontColor=#5B9BD5;" parent="1" vertex="1">
          <mxGeometry x="776" y="446.92065" width="40" height="20.078699999999998" as="geometry" />
        </mxCell>
        <mxCell id="174S2ISfr4z_TtCMh8-6-30" value="1..*" style="text;strokeColor=none;align=center;fillColor=none;html=1;verticalAlign=middle;whiteSpace=wrap;rounded=0;fontColor=#5B9BD5;" parent="1" vertex="1">
          <mxGeometry x="776" y="277.00065" width="40" height="20.078699999999998" as="geometry" />
        </mxCell>
        <mxCell id="174S2ISfr4z_TtCMh8-6-31" value="1..*" style="text;strokeColor=none;align=center;fillColor=none;html=1;verticalAlign=middle;whiteSpace=wrap;rounded=0;fontColor=#5B9BD5;" parent="1" vertex="1">
          <mxGeometry x="776" y="41.00065000000001" width="40" height="20.078699999999998" as="geometry" />
        </mxCell>
        <mxCell id="zr2KxAELkOtLJ5QSwGW_-1" value="Target Account" style="rounded=0;whiteSpace=wrap;html=1;strokeColor=#5B9BD5;fontColor=#5B9BD5;fontStyle=1;verticalAlign=middle;align=left;spacingLeft=3;" parent="1" vertex="1">
          <mxGeometry x="960" y="9" width="180" height="30" as="geometry" />
        </mxCell>
        <mxCell id="zr2KxAELkOtLJ5QSwGW_-2" value="2" style="shape=partialRectangle;html=1;whiteSpace=wrap;connectable=0;overflow=hidden;fillColor=none;top=0;left=0;bottom=0;right=0;pointerEvents=1;align=right;spacingLeft=3;fontColor=#FFFFFF;" parent="1" vertex="1">
          <mxGeometry x="970" y="50" width="24" height="30" as="geometry">
            <mxRectangle width="24" height="30" as="alternateBounds" />
          </mxGeometry>
        </mxCell>
        <mxCell id="zr2KxAELkOtLJ5QSwGW_-3" value="Service" style="shape=partialRectangle;html=1;whiteSpace=wrap;connectable=0;strokeColor=#BD0100;overflow=hidden;fillColor=none;top=0;left=0;bottom=0;right=0;pointerEvents=1;align=left;spacingLeft=3;fontColor=#FFFFFF;" parent="1" vertex="1">
          <mxGeometry x="994" y="50" width="156" height="30" as="geometry">
            <mxRectangle width="156" height="30" as="alternateBounds" />
          </mxGeometry>
        </mxCell>
        <mxCell id="zr2KxAELkOtLJ5QSwGW_-4" value="" style="rounded=0;whiteSpace=wrap;html=1;strokeColor=#5B9BD5;fillColor=#f5f5f5;fontColor=#333333;" parent="1" vertex="1">
          <mxGeometry x="960" y="39" width="180" height="195" as="geometry" />
        </mxCell>
        <mxCell id="zr2KxAELkOtLJ5QSwGW_-5" value="" style="shape=table;startSize=0;container=1;collapsible=0;childLayout=tableLayout;fillColor=#5B9BD5;strokeColor=#5B9BD5;fontColor=#FFFFFF;spacingRight=3;spacingLeft=3;" parent="1" vertex="1">
          <mxGeometry x="970" y="76.09" width="160" height="30" as="geometry" />
        </mxCell>
        <mxCell id="zr2KxAELkOtLJ5QSwGW_-6" style="shape=tableRow;horizontal=0;startSize=0;swimlaneHead=0;swimlaneBody=0;strokeColor=inherit;top=0;left=0;bottom=0;right=0;collapsible=0;dropTarget=0;fillColor=none;points=[[0,0.5],[1,0.5]];portConstraint=eastwest;fontColor=#FFFFFF;" parent="zr2KxAELkOtLJ5QSwGW_-5" vertex="1">
          <mxGeometry width="160" height="30" as="geometry" />
        </mxCell>
        <mxCell id="zr2KxAELkOtLJ5QSwGW_-7" value="id" style="shape=partialRectangle;html=1;whiteSpace=wrap;connectable=0;strokeColor=#d6b656;overflow=hidden;fillColor=#fff2cc;top=0;left=0;bottom=0;right=0;pointerEvents=1;align=left;spacingLeft=3;" parent="zr2KxAELkOtLJ5QSwGW_-6" vertex="1">
          <mxGeometry width="160" height="30" as="geometry">
            <mxRectangle width="160" height="30" as="alternateBounds" />
          </mxGeometry>
        </mxCell>
        <mxCell id="zr2KxAELkOtLJ5QSwGW_-25" value="" style="endArrow=none;html=1;rounded=0;startArrow=block;startFill=1;endFill=0;strokeColor=#7030A0;" parent="1" source="83HNwVi8-6vwmqwuiDNP-14" target="zr2KxAELkOtLJ5QSwGW_-6" edge="1">
          <mxGeometry width="50" height="50" relative="1" as="geometry">
            <mxPoint x="730" y="95" as="sourcePoint" />
            <mxPoint x="795" y="95" as="targetPoint" />
          </mxGeometry>
        </mxCell>
        <mxCell id="T-Sli8b0CPqCo_omeNDF-14" value="OIG Global Role" style="rounded=0;whiteSpace=wrap;html=1;strokeColor=#5B9BD5;fontColor=#5B9BD5;fontStyle=1;verticalAlign=middle;align=left;spacingLeft=3;" parent="1" vertex="1">
          <mxGeometry x="320" y="325" width="420" height="30" as="geometry" />
        </mxCell>
        <mxCell id="T-Sli8b0CPqCo_omeNDF-15" value="" style="rounded=0;whiteSpace=wrap;html=1;strokeColor=#5B9BD5;fillColor=#f5f5f5;fontColor=#333333;" parent="1" vertex="1">
          <mxGeometry x="320" y="355" width="420" height="50" as="geometry" />
        </mxCell>
        <mxCell id="T-Sli8b0CPqCo_omeNDF-16" value="" style="shape=table;startSize=0;container=1;collapsible=0;childLayout=tableLayout;fillColor=#5B9BD5;strokeColor=#5B9BD5;fontColor=#FFFFFF;spacingRight=3;spacingLeft=3;" parent="1" vertex="1">
          <mxGeometry x="330" y="365" width="400" height="30" as="geometry" />
        </mxCell>
        <mxCell id="T-Sli8b0CPqCo_omeNDF-17" style="shape=tableRow;horizontal=0;startSize=0;swimlaneHead=0;swimlaneBody=0;strokeColor=inherit;top=0;left=0;bottom=0;right=0;collapsible=0;dropTarget=0;fillColor=none;points=[[0,0.5],[1,0.5]];portConstraint=eastwest;fontColor=#FFFFFF;" parent="T-Sli8b0CPqCo_omeNDF-16" vertex="1">
          <mxGeometry width="400" height="30" as="geometry" />
        </mxCell>
        <mxCell id="T-Sli8b0CPqCo_omeNDF-18" value="2" style="shape=partialRectangle;html=1;whiteSpace=wrap;connectable=0;strokeColor=inherit;overflow=hidden;fillColor=none;top=0;left=0;bottom=0;right=0;pointerEvents=1;align=right;spacingLeft=3;fontColor=#FFFFFF;" parent="T-Sli8b0CPqCo_omeNDF-17" vertex="1">
          <mxGeometry width="21" height="30" as="geometry">
            <mxRectangle width="21" height="30" as="alternateBounds" />
          </mxGeometry>
        </mxCell>
        <mxCell id="T-Sli8b0CPqCo_omeNDF-19" value="Name" style="shape=partialRectangle;html=1;whiteSpace=wrap;connectable=0;strokeColor=inherit;overflow=hidden;fillColor=none;top=0;left=0;bottom=0;right=0;pointerEvents=1;align=left;spacingLeft=3;fontColor=#FFFFFF;" parent="T-Sli8b0CPqCo_omeNDF-17" vertex="1">
          <mxGeometry x="21" width="99" height="30" as="geometry">
            <mxRectangle width="99" height="30" as="alternateBounds" />
          </mxGeometry>
        </mxCell>
        <mxCell id="T-Sli8b0CPqCo_omeNDF-20" value="UD_OIG_UPG_SID" style="shape=partialRectangle;html=1;whiteSpace=wrap;connectable=0;strokeColor=inherit;overflow=hidden;fillColor=none;top=0;left=0;bottom=0;right=0;pointerEvents=1;align=left;spacingLeft=3;fontColor=#FFFFFF;" parent="T-Sli8b0CPqCo_omeNDF-17" vertex="1">
          <mxGeometry x="120" width="181" height="30" as="geometry">
            <mxRectangle width="181" height="30" as="alternateBounds" />
          </mxGeometry>
        </mxCell>
        <mxCell id="T-Sli8b0CPqCo_omeNDF-21" value="String&#x9;" style="shape=partialRectangle;html=1;whiteSpace=wrap;connectable=0;strokeColor=inherit;overflow=hidden;fillColor=none;top=0;left=0;bottom=0;right=0;pointerEvents=1;align=left;spacingLeft=3;fontColor=#FFFFFF;" parent="T-Sli8b0CPqCo_omeNDF-17" vertex="1">
          <mxGeometry x="301" width="53" height="30" as="geometry">
            <mxRectangle width="53" height="30" as="alternateBounds" />
          </mxGeometry>
        </mxCell>
        <mxCell id="T-Sli8b0CPqCo_omeNDF-22" value="64" style="shape=partialRectangle;whiteSpace=wrap;connectable=0;strokeColor=inherit;overflow=hidden;fillColor=none;top=0;left=0;bottom=0;right=0;pointerEvents=1;align=right;spacingLeft=3;fontColor=#FFFFFF;spacingRight=3;" parent="T-Sli8b0CPqCo_omeNDF-17" vertex="1">
          <mxGeometry x="354" width="46" height="30" as="geometry">
            <mxRectangle width="46" height="30" as="alternateBounds" />
          </mxGeometry>
        </mxCell>
        <mxCell id="T-Sli8b0CPqCo_omeNDF-24" value="OIG.Global Role" style="rounded=0;whiteSpace=wrap;html=1;fillColor=#ffe6cc;strokeColor=#d79b00;" parent="1" vertex="1">
          <mxGeometry x="816" y="366.41734999999994" width="120" height="27.165300000000002" as="geometry" />
        </mxCell>
        <mxCell id="T-Sli8b0CPqCo_omeNDF-25" value="" style="endArrow=open;html=1;rounded=0;endFill=0;exitX=1;exitY=0.5;exitDx=0;exitDy=0;entryX=0;entryY=0.5;entryDx=0;entryDy=0;" parent="1" source="T-Sli8b0CPqCo_omeNDF-17" target="T-Sli8b0CPqCo_omeNDF-24" edge="1">
          <mxGeometry width="50" height="50" relative="1" as="geometry">
            <mxPoint x="830" y="308" as="sourcePoint" />
            <mxPoint x="880" y="258" as="targetPoint" />
          </mxGeometry>
        </mxCell>
        <mxCell id="T-Sli8b0CPqCo_omeNDF-26" value="1" style="text;strokeColor=none;align=center;fillColor=none;html=1;verticalAlign=middle;whiteSpace=wrap;rounded=0;fontColor=#5B9BD5;" parent="1" vertex="1">
          <mxGeometry x="740" y="360.00064999999995" width="18.5039" height="20.078699999999998" as="geometry" />
        </mxCell>
        <mxCell id="T-Sli8b0CPqCo_omeNDF-27" value="1..*" style="text;strokeColor=none;align=center;fillColor=none;html=1;verticalAlign=middle;whiteSpace=wrap;rounded=0;fontColor=#5B9BD5;" parent="1" vertex="1">
          <mxGeometry x="776" y="360.00064999999995" width="40" height="20.078699999999998" as="geometry" />
        </mxCell>
        <mxCell id="T-Sli8b0CPqCo_omeNDF-29" value="" style="endArrow=diamondThin;html=1;rounded=0;exitX=0;exitY=0.5;exitDx=0;exitDy=0;strokeColor=#5B9BD5;startArrow=none;startFill=0;endFill=0;edgeStyle=orthogonalEdgeStyle;entryX=0.039;entryY=1;entryDx=0;entryDy=0;entryPerimeter=0;" parent="1" source="T-Sli8b0CPqCo_omeNDF-15" edge="1">
          <mxGeometry width="50" height="50" relative="1" as="geometry">
            <mxPoint x="309.25" y="535" as="sourcePoint" />
            <mxPoint x="269.1099999999999" y="233" as="targetPoint" />
          </mxGeometry>
        </mxCell>
        <mxCell id="T-Sli8b0CPqCo_omeNDF-30" value="1" style="text;strokeColor=none;align=center;fillColor=none;html=1;verticalAlign=middle;whiteSpace=wrap;rounded=0;fontColor=#5B9BD5;" parent="1" vertex="1">
          <mxGeometry x="268" y="241.00065" width="18.5039" height="20.078699999999998" as="geometry" />
        </mxCell>
        <mxCell id="T-Sli8b0CPqCo_omeNDF-31" value="1..*" style="text;strokeColor=none;align=center;fillColor=none;html=1;verticalAlign=middle;whiteSpace=wrap;rounded=0;fontColor=#5B9BD5;" parent="1" vertex="1">
          <mxGeometry x="291" y="360" width="28.3464" height="20.078699999999998" as="geometry" />
        </mxCell>
        <mxCell id="T-Sli8b0CPqCo_omeNDF-32" value="1..*" style="text;strokeColor=none;align=center;fillColor=none;html=1;verticalAlign=middle;whiteSpace=wrap;rounded=0;fontColor=#5B9BD5;" parent="1" vertex="1">
          <mxGeometry x="291" y="462.5" width="28.3464" height="20.078699999999998" as="geometry" />
        </mxCell>
        <mxCell id="lKnTrRGMAHRhYu0Mp0A0-38" value="Last Name" style="rounded=0;whiteSpace=wrap;html=1;strokeColor=#FFFFFF;fillColor=#7030A0;fontColor=#FFFFFF;align=left;spacingLeft=3;" parent="1" vertex="1">
          <mxGeometry x="14.873999999999995" y="136.09" width="180" height="30" as="geometry" />
        </mxCell>
        <mxCell id="lKnTrRGMAHRhYu0Mp0A0-39" value="First Name" style="rounded=0;whiteSpace=wrap;html=1;strokeColor=#FFFFFF;fillColor=#7030A0;fontColor=#FFFFFF;align=left;spacingLeft=3;" parent="1" vertex="1">
          <mxGeometry x="14.873999999999995" y="166.09" width="180" height="30" as="geometry" />
        </mxCell>
        <mxCell id="lKnTrRGMAHRhYu0Mp0A0-40" value="Display Name" style="rounded=0;whiteSpace=wrap;html=1;strokeColor=#FFFFFF;fillColor=#7030A0;fontColor=#FFFFFF;align=left;spacingLeft=3;" parent="1" vertex="1">
          <mxGeometry x="14.873999999999995" y="196.09" width="180" height="30" as="geometry" />
        </mxCell>
        <mxCell id="lKnTrRGMAHRhYu0Mp0A0-41" value="" style="endArrow=oval;html=1;rounded=0;startArrow=oval;startFill=1;endFill=1;strokeColor=#7030A0;fontColor=#7030A0;labelBorderColor=#7030A0;spacingBottom=3;labelBackgroundColor=none;fontSize=17;exitX=1;exitY=0.5;exitDx=0;exitDy=0;" parent="1" source="lKnTrRGMAHRhYu0Mp0A0-38" target="lKnTrRGMAHRhYu0Mp0A0-7" edge="1">
          <mxGeometry width="50" height="50" relative="1" as="geometry">
            <mxPoint x="204" y="102" as="sourcePoint" />
            <mxPoint x="269" y="102" as="targetPoint" />
          </mxGeometry>
        </mxCell>
        <mxCell id="lKnTrRGMAHRhYu0Mp0A0-42" value="" style="endArrow=oval;html=1;rounded=0;startArrow=oval;startFill=1;endFill=1;strokeColor=#7030A0;fontColor=#7030A0;labelBorderColor=#7030A0;spacingBottom=3;labelBackgroundColor=none;fontSize=17;exitX=1;exitY=0.5;exitDx=0;exitDy=0;" parent="1" source="lKnTrRGMAHRhYu0Mp0A0-39" target="lKnTrRGMAHRhYu0Mp0A0-14" edge="1">
          <mxGeometry width="50" height="50" relative="1" as="geometry">
            <mxPoint x="214" y="112" as="sourcePoint" />
            <mxPoint x="279" y="112" as="targetPoint" />
          </mxGeometry>
        </mxCell>
        <mxCell id="lKnTrRGMAHRhYu0Mp0A0-43" value="" style="endArrow=oval;html=1;rounded=0;startArrow=oval;startFill=1;endFill=1;strokeColor=#7030A0;fontColor=#7030A0;labelBorderColor=#7030A0;spacingBottom=3;labelBackgroundColor=none;fontSize=17;exitX=1;exitY=0.5;exitDx=0;exitDy=0;" parent="1" source="lKnTrRGMAHRhYu0Mp0A0-40" target="lKnTrRGMAHRhYu0Mp0A0-26" edge="1">
          <mxGeometry width="50" height="50" relative="1" as="geometry">
            <mxPoint x="224" y="122" as="sourcePoint" />
            <mxPoint x="289" y="122" as="targetPoint" />
          </mxGeometry>
        </mxCell>
      </root>
    </mxGraphModel>
  </diagram>
  <diagram id="a5n1bUpVSIRvsgdCFQTD" name="Connector Form">
    <mxGraphModel dx="1420" dy="83" grid="1" gridSize="10" guides="1" tooltips="1" connect="1" arrows="1" fold="1" page="1" pageScale="1" pageWidth="1169" pageHeight="827" math="0" shadow="0">
      <root>
        <mxCell id="0" />
        <mxCell id="1" parent="0" />
        <mxCell id="fNukJdB2c7Irn9tH8CHD-1" value="" style="rounded=0;whiteSpace=wrap;html=1;" parent="1" vertex="1">
          <mxGeometry x="199" y="890" width="155.51149999999998" height="29.9212" as="geometry" />
        </mxCell>
        <mxCell id="fNukJdB2c7Irn9tH8CHD-2" value="Anmeldename" style="text;strokeColor=none;align=right;fillColor=none;html=1;verticalAlign=middle;whiteSpace=wrap;rounded=0;" parent="1" vertex="1">
          <mxGeometry x="101" y="890" width="90.551" height="29.9212" as="geometry" />
        </mxCell>
        <mxCell id="fNukJdB2c7Irn9tH8CHD-3" value="" style="rounded=0;whiteSpace=wrap;html=1;" parent="1" vertex="1">
          <mxGeometry x="473" y="890" width="155.51149999999998" height="29.9212" as="geometry" />
        </mxCell>
        <mxCell id="fNukJdB2c7Irn9tH8CHD-4" value="Display Name" style="text;strokeColor=none;align=right;fillColor=none;html=1;verticalAlign=middle;whiteSpace=wrap;rounded=0;" parent="1" vertex="1">
          <mxGeometry x="373" y="890" width="91.55" height="29.92" as="geometry" />
        </mxCell>
        <mxCell id="fNukJdB2c7Irn9tH8CHD-41" value="Benutzerkonto" style="swimlane;whiteSpace=wrap;html=1;fillColor=#dae8fc;strokeColor=#6c8ebf;align=left;spacingLeft=20;" parent="1" vertex="1">
          <mxGeometry x="100" y="860" width="984.5509999999999" height="260" as="geometry" />
        </mxCell>
        <mxCell id="fNukJdB2c7Irn9tH8CHD-42" value="Systemrolle" style="swimlane;whiteSpace=wrap;html=1;fillColor=#fff2cc;strokeColor=#d6b656;align=left;spacingLeft=20;" parent="fNukJdB2c7Irn9tH8CHD-41" vertex="1">
          <mxGeometry y="146" width="260" height="110" as="geometry" />
        </mxCell>
        <mxCell id="fNukJdB2c7Irn9tH8CHD-43" value="" style="rounded=0;whiteSpace=wrap;html=1;" parent="fNukJdB2c7Irn9tH8CHD-42" vertex="1">
          <mxGeometry x="30" y="60.000000000000036" width="220" height="29.92" as="geometry" />
        </mxCell>
        <mxCell id="fNukJdB2c7Irn9tH8CHD-44" value="Name" style="text;strokeColor=none;align=left;fillColor=none;html=1;verticalAlign=middle;whiteSpace=wrap;rounded=0;" parent="fNukJdB2c7Irn9tH8CHD-42" vertex="1">
          <mxGeometry x="30" y="30.079999999999927" width="90.551" height="29.9212" as="geometry" />
        </mxCell>
        <mxCell id="J3ZXblBbufl5tu4t4llN-9" value="" style="shape=image;imageAspect=0;aspect=fixed;verticalLabelPosition=bottom;verticalAlign=top;image=data:image/png,iVBORw0KGgoAAAANSUhEUgAAABAAAAAQCAYAAAAf8/9hAAAAAXNSR0IArs4c6QAAADhlWElmTU0AKgAAAAgAAYdpAAQAAAABAAAAGgAAAAAAAqACAAQAAAABAAAAEKADAAQAAAABAAAAEAAAAAAXnVPIAAABWElEQVQ4EY2TTStEYRTHDYqaFAtvC1YTickGOxoWaoov4AsoH4AVC9vZWCmfAEslJQuKYmPDQhZWKJGFKAuJ33/uOdNzn5nFPfWb8/I/c+7znLmTa0rbJGkZCtAGL3AJB/ANdZazippXYa6uIym84dbhPtZ9wCbCtInH+BP4giIsQRd8wgo8QcpmyE6NhZSSJN24fdMrsd5MYdGK1/jDuIFcx9+2+gS+3+Kq04BhK1yFQhSH2lCoaYAWKPtJXMNPaX+mtIcdGvBshbFQiOJRcl94aokacG7Ns3g1xtZKYdmK2sdd2NBC8gDzkIcS6Od6hF8YgQ3wwbvEN1AzP5YWWYEOU3RfDdDTQ9PbuAa3XtQJZO+gd6EHBkBXEzLdeQcK0Akl0CleoaHpFOMwBYNBRx/xHuhBR1CE2mYVZzEN2YJeqF7Hd5Dly94TDvnwHbiYxetPdgG65tk/t785tkodb2MAAAAASUVORK5CYII=;" parent="fNukJdB2c7Irn9tH8CHD-42" vertex="1">
          <mxGeometry x="231" y="66.96000000000004" width="16" height="16" as="geometry" />
        </mxCell>
        <mxCell id="mAZuaXMU310t7g_6I_yz-1" value="Globale Rolle" style="swimlane;whiteSpace=wrap;html=1;fillColor=#fff2cc;strokeColor=#d6b656;align=left;spacingLeft=20;" parent="fNukJdB2c7Irn9tH8CHD-41" vertex="1">
          <mxGeometry x="263" y="146" width="260" height="110" as="geometry" />
        </mxCell>
        <mxCell id="mAZuaXMU310t7g_6I_yz-2" value="" style="rounded=0;whiteSpace=wrap;html=1;" parent="mAZuaXMU310t7g_6I_yz-1" vertex="1">
          <mxGeometry x="30" y="60.000000000000036" width="220" height="29.92" as="geometry" />
        </mxCell>
        <mxCell id="mAZuaXMU310t7g_6I_yz-3" value="Name" style="text;strokeColor=none;align=left;fillColor=none;html=1;verticalAlign=middle;whiteSpace=wrap;rounded=0;" parent="mAZuaXMU310t7g_6I_yz-1" vertex="1">
          <mxGeometry x="30" y="30.079999999999927" width="90.551" height="29.9212" as="geometry" />
        </mxCell>
        <mxCell id="J3ZXblBbufl5tu4t4llN-10" value="" style="shape=image;imageAspect=0;aspect=fixed;verticalLabelPosition=bottom;verticalAlign=top;image=data:image/png,iVBORw0KGgoAAAANSUhEUgAAABAAAAAQCAYAAAAf8/9hAAAAAXNSR0IArs4c6QAAADhlWElmTU0AKgAAAAgAAYdpAAQAAAABAAAAGgAAAAAAAqACAAQAAAABAAAAEKADAAQAAAABAAAAEAAAAAAXnVPIAAABWElEQVQ4EY2TTStEYRTHDYqaFAtvC1YTickGOxoWaoov4AsoH4AVC9vZWCmfAEslJQuKYmPDQhZWKJGFKAuJ33/uOdNzn5nFPfWb8/I/c+7znLmTa0rbJGkZCtAGL3AJB/ANdZazippXYa6uIym84dbhPtZ9wCbCtInH+BP4giIsQRd8wgo8QcpmyE6NhZSSJN24fdMrsd5MYdGK1/jDuIFcx9+2+gS+3+Kq04BhK1yFQhSH2lCoaYAWKPtJXMNPaX+mtIcdGvBshbFQiOJRcl94aokacG7Ns3g1xtZKYdmK2sdd2NBC8gDzkIcS6Od6hF8YgQ3wwbvEN1AzP5YWWYEOU3RfDdDTQ9PbuAa3XtQJZO+gd6EHBkBXEzLdeQcK0Akl0CleoaHpFOMwBYNBRx/xHuhBR1CE2mYVZzEN2YJeqF7Hd5Dly94TDvnwHbiYxetPdgG65tk/t785tkodb2MAAAAASUVORK5CYII=;" parent="mAZuaXMU310t7g_6I_yz-1" vertex="1">
          <mxGeometry x="231" y="66.96000000000004" width="16" height="16" as="geometry" />
        </mxCell>
        <mxCell id="fNukJdB2c7Irn9tH8CHD-45" value="Scoped Rolle" style="swimlane;whiteSpace=wrap;html=1;fillColor=#fff2cc;strokeColor=#d6b656;align=left;spacingLeft=20;" parent="fNukJdB2c7Irn9tH8CHD-41" vertex="1">
          <mxGeometry x="527" y="146" width="457.551" height="110" as="geometry" />
        </mxCell>
        <mxCell id="fNukJdB2c7Irn9tH8CHD-46" value="" style="rounded=0;whiteSpace=wrap;html=1;" parent="fNukJdB2c7Irn9tH8CHD-45" vertex="1">
          <mxGeometry x="29.99999999999997" y="59.999999999999886" width="155.51149999999998" height="29.9212" as="geometry" />
        </mxCell>
        <mxCell id="fNukJdB2c7Irn9tH8CHD-47" value="Name" style="text;strokeColor=none;align=left;fillColor=none;html=1;verticalAlign=middle;whiteSpace=wrap;rounded=0;" parent="fNukJdB2c7Irn9tH8CHD-45" vertex="1">
          <mxGeometry x="30" y="30.079999999999927" width="90.551" height="29.9212" as="geometry" />
        </mxCell>
        <mxCell id="fNukJdB2c7Irn9tH8CHD-48" value="" style="rounded=0;whiteSpace=wrap;html=1;" parent="fNukJdB2c7Irn9tH8CHD-45" vertex="1">
          <mxGeometry x="197.99999999999997" y="59.999999999999886" width="155.51149999999998" height="29.9212" as="geometry" />
        </mxCell>
        <mxCell id="fNukJdB2c7Irn9tH8CHD-49" value="Scope" style="text;strokeColor=none;align=left;fillColor=none;html=1;verticalAlign=middle;whiteSpace=wrap;rounded=0;" parent="fNukJdB2c7Irn9tH8CHD-45" vertex="1">
          <mxGeometry x="198" y="30.079999999999927" width="90.551" height="29.9212" as="geometry" />
        </mxCell>
        <mxCell id="J3ZXblBbufl5tu4t4llN-1" value="" style="rounded=0;whiteSpace=wrap;html=1;" parent="fNukJdB2c7Irn9tH8CHD-45" vertex="1">
          <mxGeometry x="367" y="60" width="29.9212" height="29.92" as="geometry" />
        </mxCell>
        <mxCell id="J3ZXblBbufl5tu4t4llN-2" value="Hierarchie" style="text;strokeColor=none;align=left;fillColor=none;html=1;verticalAlign=middle;whiteSpace=wrap;rounded=0;" parent="fNukJdB2c7Irn9tH8CHD-45" vertex="1">
          <mxGeometry x="367" y="30.079999999999927" width="90.551" height="29.9212" as="geometry" />
        </mxCell>
        <mxCell id="J3ZXblBbufl5tu4t4llN-11" value="" style="shape=image;imageAspect=0;aspect=fixed;verticalLabelPosition=bottom;verticalAlign=top;image=data:image/png,iVBORw0KGgoAAAANSUhEUgAAABAAAAAQCAYAAAAf8/9hAAAAAXNSR0IArs4c6QAAADhlWElmTU0AKgAAAAgAAYdpAAQAAAABAAAAGgAAAAAAAqACAAQAAAABAAAAEKADAAQAAAABAAAAEAAAAAAXnVPIAAABWElEQVQ4EY2TTStEYRTHDYqaFAtvC1YTickGOxoWaoov4AsoH4AVC9vZWCmfAEslJQuKYmPDQhZWKJGFKAuJ33/uOdNzn5nFPfWb8/I/c+7znLmTa0rbJGkZCtAGL3AJB/ANdZazippXYa6uIym84dbhPtZ9wCbCtInH+BP4giIsQRd8wgo8QcpmyE6NhZSSJN24fdMrsd5MYdGK1/jDuIFcx9+2+gS+3+Kq04BhK1yFQhSH2lCoaYAWKPtJXMNPaX+mtIcdGvBshbFQiOJRcl94aokacG7Ns3g1xtZKYdmK2sdd2NBC8gDzkIcS6Od6hF8YgQ3wwbvEN1AzP5YWWYEOU3RfDdDTQ9PbuAa3XtQJZO+gd6EHBkBXEzLdeQcK0Akl0CleoaHpFOMwBYNBRx/xHuhBR1CE2mYVZzEN2YJeqF7Hd5Dly94TDvnwHbiYxetPdgG65tk/t785tkodb2MAAAAASUVORK5CYII=;" parent="fNukJdB2c7Irn9tH8CHD-45" vertex="1">
          <mxGeometry x="166.51149999999996" y="66.96059999999989" width="16" height="16" as="geometry" />
        </mxCell>
        <mxCell id="J3ZXblBbufl5tu4t4llN-12" value="" style="shape=image;imageAspect=0;aspect=fixed;verticalLabelPosition=bottom;verticalAlign=top;image=data:image/png,iVBORw0KGgoAAAANSUhEUgAAABAAAAAQCAYAAAAf8/9hAAAAAXNSR0IArs4c6QAAADhlWElmTU0AKgAAAAgAAYdpAAQAAAABAAAAGgAAAAAAAqACAAQAAAABAAAAEKADAAQAAAABAAAAEAAAAAAXnVPIAAABWElEQVQ4EY2TTStEYRTHDYqaFAtvC1YTickGOxoWaoov4AsoH4AVC9vZWCmfAEslJQuKYmPDQhZWKJGFKAuJ33/uOdNzn5nFPfWb8/I/c+7znLmTa0rbJGkZCtAGL3AJB/ANdZazippXYa6uIym84dbhPtZ9wCbCtInH+BP4giIsQRd8wgo8QcpmyE6NhZSSJN24fdMrsd5MYdGK1/jDuIFcx9+2+gS+3+Kq04BhK1yFQhSH2lCoaYAWKPtJXMNPaX+mtIcdGvBshbFQiOJRcl94aokacG7Ns3g1xtZKYdmK2sdd2NBC8gDzkIcS6Od6hF8YgQ3wwbvEN1AzP5YWWYEOU3RfDdDTQ9PbuAa3XtQJZO+gd6EHBkBXEzLdeQcK0Akl0CleoaHpFOMwBYNBRx/xHuhBR1CE2mYVZzEN2YJeqF7Hd5Dly94TDvnwHbiYxetPdgG65tk/t785tkodb2MAAAAASUVORK5CYII=;" parent="fNukJdB2c7Irn9tH8CHD-45" vertex="1">
          <mxGeometry x="332.51149999999996" y="66.96059999999989" width="16" height="16" as="geometry" />
        </mxCell>
        <mxCell id="L_tGN2v0jGYvaXmmTFUS-1" value="" style="rounded=0;whiteSpace=wrap;html=1;" parent="fNukJdB2c7Irn9tH8CHD-41" vertex="1">
          <mxGeometry x="98" y="70" width="155.51149999999998" height="29.9212" as="geometry" />
        </mxCell>
        <mxCell id="L_tGN2v0jGYvaXmmTFUS-2" value="Vorname" style="text;strokeColor=none;align=right;fillColor=none;html=1;verticalAlign=middle;whiteSpace=wrap;rounded=0;" parent="fNukJdB2c7Irn9tH8CHD-41" vertex="1">
          <mxGeometry y="70" width="90.551" height="29.9212" as="geometry" />
        </mxCell>
        <mxCell id="L_tGN2v0jGYvaXmmTFUS-3" value="" style="rounded=0;whiteSpace=wrap;html=1;" parent="fNukJdB2c7Irn9tH8CHD-41" vertex="1">
          <mxGeometry x="98" y="110" width="155.51149999999998" height="29.9212" as="geometry" />
        </mxCell>
        <mxCell id="L_tGN2v0jGYvaXmmTFUS-4" value="Nachname" style="text;strokeColor=none;align=right;fillColor=none;html=1;verticalAlign=middle;whiteSpace=wrap;rounded=0;" parent="fNukJdB2c7Irn9tH8CHD-41" vertex="1">
          <mxGeometry y="110" width="90.551" height="29.9212" as="geometry" />
        </mxCell>
        <mxCell id="L_tGN2v0jGYvaXmmTFUS-5" value="" style="rounded=0;whiteSpace=wrap;html=1;" parent="fNukJdB2c7Irn9tH8CHD-41" vertex="1">
          <mxGeometry x="371.49" y="110" width="155.51149999999998" height="29.9212" as="geometry" />
        </mxCell>
        <mxCell id="L_tGN2v0jGYvaXmmTFUS-6" value="Id" style="text;strokeColor=none;align=right;fillColor=none;html=1;verticalAlign=middle;whiteSpace=wrap;rounded=0;" parent="fNukJdB2c7Irn9tH8CHD-41" vertex="1">
          <mxGeometry x="271.49" y="110.00059999999999" width="91.55" height="29.92" as="geometry" />
        </mxCell>
        <mxCell id="J3ZXblBbufl5tu4t4llN-5" value="" style="rounded=0;whiteSpace=wrap;html=1;" parent="fNukJdB2c7Irn9tH8CHD-41" vertex="1">
          <mxGeometry x="371.49" y="70" width="29.9212" height="29.92" as="geometry" />
        </mxCell>
        <mxCell id="J3ZXblBbufl5tu4t4llN-4" value="System Konto" style="text;strokeColor=none;align=right;fillColor=none;html=1;verticalAlign=middle;whiteSpace=wrap;rounded=0;" parent="1" vertex="1">
          <mxGeometry x="373" y="930.0006" width="91.55" height="29.92" as="geometry" />
        </mxCell>
      </root>
    </mxGraphModel>
  </diagram>
</mxfile>
